<svg width="1181" height="712" viewBox="0 0 1181 712" fill="none" xmlns="http://www.w3.org/2000/svg">
<path d="M120.586 31.007C120.865 31.2644 121.122 31.5217 121.379 31.8005C121.98 32.4654 122.451 33.1516 122.708 33.795C122.965 34.4813 123.008 34.8244 122.901 35.4678C122.687 36.6687 121.615 37.9984 120.308 38.6632C119.065 39.3495 117.35 39.4781 115.571 39.1564C114.756 39.0063 113.663 38.6846 112.849 38.4058C112.034 38.1056 111.37 37.7196 110.898 37.2692C109.934 36.3685 109.569 35.1675 109.869 33.7736C110.17 32.3796 111.177 30.8998 112.484 29.8704C113.728 28.9483 114.992 28.5837 116.514 28.9054C117.993 29.2056 119.643 30.1492 120.929 31.3716C121.208 31.6075 121.444 31.8863 121.615 32.1008C121.787 32.3152 122.044 32.1222 122.537 31.9507C122.88 31.4574 123.651 31.4789 124.316 31.4789C124.959 31.4789 125.688 31.3073 125.902 30.428C126.202 29.9133 126.181 29.1842 125.838 28.7767C125.43 28.262 125.045 27.8545 124.616 27.4685C122.687 25.667 120.415 24.2302 117.564 23.6297C114.735 22.9434 111.327 23.8442 109.141 25.667C107.019 27.3827 105.304 29.6989 104.618 32.6155C104.297 34.0738 104.297 35.7037 104.747 37.2478C105.218 38.7704 106.097 40.1644 107.233 41.2152C108.369 42.2661 109.698 42.9738 110.941 43.4242C112.206 43.8745 113.235 44.1748 114.606 44.4321C117.157 44.8825 120.115 44.8181 122.794 43.4027C124.144 42.6736 125.216 41.7728 126.181 40.6362C127.124 39.4996 127.852 38.0627 128.152 36.5186C128.302 35.7895 128.388 34.8673 128.281 34.0309C128.195 33.1731 127.96 32.4225 127.681 31.6933C127.081 30.2993 126.266 29.1627 125.387 28.1762C125.023 27.7687 124.637 27.3827 124.252 27.0181C122.751 25.7099 119.686 30.1921 120.608 30.9856L120.586 31.007Z" fill="#32E6E2"/>
<path d="M146.392 38.792C146.028 38.7062 145.664 38.599 145.321 38.4918C144.485 38.213 143.713 37.8484 143.177 37.4409C142.62 36.9691 142.406 36.7118 142.191 36.0898C141.763 34.9318 142.041 33.259 142.834 32.0151C143.585 30.7927 144.999 29.8277 146.693 29.2272C147.464 28.9484 148.579 28.6696 149.415 28.5195C150.272 28.3694 151.022 28.3694 151.665 28.5195C152.951 28.8197 153.873 29.6776 154.302 31.0286C154.73 32.4012 154.602 34.1812 153.98 35.7253C153.358 37.1621 152.437 38.0843 150.979 38.5776C149.543 39.0708 147.636 39.0708 145.942 38.6419C145.578 38.5561 145.235 38.4489 144.978 38.3417C144.699 38.2344 144.592 38.5347 144.249 38.9421C144.206 39.5426 143.52 39.9072 142.963 40.2503C142.406 40.572 141.87 41.0867 142.106 41.966C142.106 42.5665 142.492 43.1884 142.984 43.36C143.585 43.5959 144.142 43.7674 144.699 43.8961C147.271 44.4966 149.95 44.5824 152.737 43.7031C155.523 42.8882 158.031 40.4004 159.017 37.7412C160.003 35.1891 160.324 32.3368 159.467 29.4417C159.017 28.0262 158.202 26.6108 157.045 25.4956C155.888 24.4019 154.43 23.6298 152.908 23.3082C151.387 22.965 149.886 23.0294 148.579 23.2438C147.25 23.4797 146.221 23.7371 144.914 24.1874C142.47 25.0667 139.962 26.5894 138.333 29.1629C137.54 30.4496 137.047 31.7792 136.79 33.259C136.554 34.7173 136.619 36.3258 137.133 37.8055C137.369 38.4918 137.755 39.3496 138.269 40.0144C138.762 40.7221 139.362 41.2368 139.962 41.7301C141.184 42.6523 142.449 43.2098 143.713 43.6173C144.228 43.7889 144.742 43.939 145.278 44.0462C147.228 44.4108 147.636 39.0279 146.457 38.792H146.392Z" fill="#32E6E2"/>
<path d="M176.036 36.9691C175.757 36.7117 175.522 36.4329 175.265 36.1541C174.686 35.4893 174.236 34.7601 173.978 34.1382C173.743 33.452 173.7 33.1088 173.828 32.4654C174.064 31.2645 175.179 29.9777 176.486 29.3344C177.751 28.691 179.466 28.6052 181.223 28.9698C182.038 29.1414 183.131 29.4845 183.924 29.7847C184.738 30.1064 185.381 30.5139 185.853 30.9642C186.796 31.8864 187.139 33.1088 186.796 34.4814C186.453 35.8753 185.403 37.3122 184.074 38.3201C182.809 39.2209 181.523 39.5426 180.023 39.1994C178.544 38.8777 176.915 37.8698 175.672 36.6259C175.415 36.3686 175.179 36.0898 175.007 35.8753C174.836 35.6394 174.579 35.8324 174.064 36.004C173.721 36.4758 172.928 36.4544 172.285 36.4329C171.642 36.4329 170.913 36.583 170.656 37.4409C170.335 37.9556 170.356 38.6847 170.678 39.0922C171.063 39.6069 171.449 40.0358 171.857 40.4433C173.743 42.2876 175.993 43.7674 178.823 44.4536C181.63 45.2042 185.06 44.3893 187.289 42.6307C189.454 40.958 191.233 38.7062 191.983 35.7895C192.347 34.3312 192.39 32.7014 191.983 31.1573C191.554 29.6132 190.718 28.1977 189.582 27.1254C188.468 26.0317 187.16 25.324 185.917 24.8093C184.652 24.3375 183.645 23.9944 182.295 23.6941C179.766 23.1794 176.808 23.158 174.086 24.5091C172.735 25.1953 171.621 26.0746 170.635 27.1898C169.67 28.305 168.899 29.7204 168.556 31.243C168.406 31.9508 168.277 32.8944 168.384 33.7307C168.449 34.5886 168.684 35.3606 168.942 36.0898C169.499 37.5052 170.292 38.6418 171.149 39.6498C171.514 40.0573 171.878 40.4647 172.264 40.8293C173.743 42.1589 176.893 37.7626 176.015 36.9691H176.036Z" fill="#32E6E2"/>
<path d="M1018.28 634.04C1019.07 632.025 1017.48 631.467 1016.82 630.631C1015.75 629.301 1014.7 627.95 1013.99 626.556C1013.35 625.269 1012.94 624.004 1012.87 622.76C1012.79 621.516 1013.05 620.015 1013.54 618.621C1014.01 617.356 1014.76 616.112 1015.85 615.211C1017.29 614.053 1019.07 613.774 1020.7 613.731C1023.48 613.667 1026.14 612.981 1029.29 613.302C1030.09 613.388 1030.84 613.56 1031.61 613.817C1032.4 614.096 1033.19 614.396 1033.9 614.739C1035.31 615.425 1036.52 616.283 1037.5 617.163C1038.49 618.042 1039.39 618.814 1040.22 619.8C1041.06 620.765 1041.79 621.945 1042.15 623.382C1042.52 624.84 1042.2 626.427 1041.49 627.8C1040.78 629.172 1039.71 630.373 1038.55 631.36C1037.37 632.346 1036.19 633.29 1034.99 634.105C1034.39 634.426 1033.84 634.92 1033.24 635.22C1032.61 635.456 1032.06 635.97 1031.39 636.142C1029.98 636.828 1028.33 636.828 1026.74 636.614C1025.16 636.228 1023.59 635.542 1022.24 634.448C1019.86 632.539 1017.7 630.437 1014.76 629.237C1014.59 629.172 1014.4 629.129 1014.14 629.108C1013.86 629.044 1013.71 629.215 1013.37 629.172C1012.75 629.172 1011.97 628.872 1011.18 629.258C1010.82 629.451 1010.67 629.901 1010.69 630.416C1010.69 630.802 1010.77 631.038 1010.84 631.317C1011.16 631.982 1011.42 632.346 1011.72 632.925C1011.91 633.29 1012.17 633.59 1012.42 633.89C1013.13 634.641 1013.84 635.327 1014.61 635.971C1016.75 637.772 1019.15 639.23 1021.79 640.324C1024.6 641.504 1027.79 642.211 1031.05 641.847C1034.35 641.568 1037.33 639.959 1039.82 638.137C1042.24 636.249 1044.34 633.869 1045.77 630.974C1047.21 628.121 1047.92 624.604 1047.21 621.151C1046.67 617.613 1044.6 614.332 1041.72 612.444C1040.99 611.951 1040.37 611.544 1039.67 611.093C1039.28 610.815 1037.37 609.892 1035.38 609.313C1033.45 608.734 1031.29 608.22 1030.21 608.005C1028.97 607.726 1027.86 607.469 1026.42 607.555C1025.33 607.619 1024.23 607.726 1023.05 607.834C1021.62 607.962 1020.18 608.241 1018.77 608.649C1017.1 609.185 1015.49 610 1014.03 610.986C1012.96 611.737 1011.93 612.702 1011.01 613.688C1008.39 616.455 1006.53 620.401 1007.15 624.969C1007.47 627.113 1008.31 629.001 1009.32 630.631C1009.83 631.424 1010.37 632.196 1010.94 632.904L1011.84 633.933L1012.32 634.426L1012.42 634.555L1012.47 634.598L1012.53 634.662C1013.37 635.349 1014.46 636.785 1015.87 636.378C1016.45 636.206 1017.05 635.756 1017.57 635.22C1017.91 634.855 1018.19 634.469 1018.32 634.04H1018.28Z" fill="#32E6E2"/>
<path d="M84.3639 406.372C82.2849 408.774 82.9279 414.436 82.8636 418.081C82.7564 424.172 82.7564 430.305 82.7564 436.396C82.7564 447.591 82.9493 458.743 83.3566 469.916C83.5495 474.956 83.7209 480.038 83.6352 485.099C83.528 491.426 82.8422 497.559 82.3277 503.779C81.4275 514.695 82.092 525.417 82.3492 536.398C82.4349 541.995 82.4563 547.528 82.1134 553.147C81.8776 556.021 81.8348 559.13 82.2849 562.154C82.4992 563.677 82.7993 565.156 83.2923 566.658L83.9996 568.91C84.3211 569.66 84.7069 570.411 85.0713 571.161C86.6788 574.121 88.9936 576.737 91.6943 578.431C94.3521 580.19 97.2242 581.434 100.096 582.206C105.841 583.857 111.606 584.072 117.308 584.093C123.095 584.05 128.753 583.814 134.347 583.857C139.963 583.9 145.579 584.136 151.194 584.393C162.469 584.908 173.507 584.972 184.824 584.586C197.448 584.136 209.623 584.222 222.268 584.629C233.371 584.972 244.688 584.908 255.362 582.592C258.105 581.991 260.206 580.662 258.984 579.01C258.405 578.238 256.841 578.217 255.726 578.131C254.247 578.174 252.747 578.196 251.204 578.174C250.111 578.174 249.017 578.174 247.924 578.217L239.394 578.582C231.377 578.903 223.34 579.118 215.281 579.203C197.963 579.354 180.902 578.903 163.776 578.689C155.224 578.582 146.65 578.517 138.034 578.624C129.375 578.667 120.823 579.289 112.549 578.496C108.348 578.003 104.19 577.188 100.439 575.772C96.6884 574.335 93.409 572.212 91.2228 569.253C90.6226 568.588 90.3225 567.687 89.8296 566.894C89.4652 566.014 89.1865 565.028 88.8865 564.127C88.6721 563.612 88.2863 562.025 87.9863 559.924C87.6648 557.779 87.6005 555.12 87.7934 552.053C87.7505 545.898 87.6862 539.271 87.7291 536.162C87.7934 532.495 87.8791 529.192 87.7719 525.117C87.6862 522.008 87.6004 518.876 87.6219 515.552L87.7934 503.436L88.072 489.153C88.1363 485.485 88.2006 481.797 88.2649 478.151C88.565 468.093 88.7579 457.82 88.8436 447.526C88.8436 442.379 88.8865 437.232 88.8865 432.107C88.8865 429.533 88.8865 426.981 88.865 424.429V420.612L88.8222 418.703V418.231V418.081V417.824C88.6507 414.714 88.9508 409.675 87.7505 407.38C87.2575 406.436 86.5288 405.836 85.7786 405.771C85.2856 405.729 84.8141 405.922 84.3854 406.415L84.3639 406.372Z" fill="#32E6E2"/>
<path d="M589.278 585.594L604.175 585.637L748.338 586.109L820.42 586.323L892.523 585.53L928.553 585.101L964.583 584.886C976.608 584.801 988.675 584.543 1000.74 583.879C1006.76 583.514 1012.81 583.106 1018.83 582.463C1021.85 582.184 1024.83 581.82 1027.88 581.434C1031.05 580.983 1034.22 580.19 1037.29 578.86C1040.33 577.445 1043.18 575.386 1045.35 572.727C1047.53 570.089 1049.03 567.001 1050 563.87C1051.86 557.607 1052.08 551.302 1052.1 545.212L1052.31 509.183L1052.53 473.154C1052.65 461.144 1052.5 449.135 1053.02 437.104L1053.49 421.856C1054.03 404.442 1048.65 404.377 1048.11 421.77L1047.64 436.996C1047.12 449.006 1047.27 461.037 1047.15 473.068L1046.93 509.14L1046.72 545.212C1046.72 551.109 1046.42 556.986 1044.85 562.261C1044.04 564.878 1042.84 567.28 1041.19 569.274C1039.54 571.268 1037.44 572.812 1035.04 573.949C1032.59 575.021 1029.89 575.686 1027.13 576.094C1024.23 576.458 1021.23 576.823 1018.27 577.102C1012.34 577.724 1006.4 578.131 1000.42 578.496C988.482 579.139 976.522 579.396 964.519 579.482L928.467 579.697L892.416 580.126L820.377 580.919L748.317 580.705L604.175 580.233L589.3 580.19C571.896 580.126 571.896 585.508 589.3 585.573L589.278 585.594Z" fill="#32E6E2"/>
<path d="M1049.95 176.474C1052.03 167.874 1051.37 146.986 1051.43 133.604C1051.45 111.171 1051.5 88.6747 1051.52 66.2424C1051.54 61.1383 1051.45 55.8412 1051.56 50.9301C1051.73 45.8903 1052.08 40.7004 1052.05 35.4248C1052.01 30.1706 1051.63 24.7448 1049.89 19.4262L1049.2 17.4317L1048.26 15.5016C1047.72 14.1934 1046.76 13.0353 1045.97 11.8344C1045.56 11.2339 1044.98 10.7407 1044.49 10.2045C1043.95 9.71127 1043.5 9.11079 1042.88 8.68187L1041.08 7.41655L1040.18 6.79462L1039.19 6.34426C1033.94 3.57776 1028.2 3.53487 1023.08 3.49197H1007.69C997.441 3.53487 987.175 3.57778 976.929 3.62067C958.389 3.70645 939.806 3.79224 921.201 3.62067C897.989 3.38477 875.398 2.59125 852.506 1.96933C812.275 0.854145 772.987 1.30451 732.692 1.36885C691.667 1.43318 650.857 0.446673 609.919 0.0392021C568.466 -0.196702 528.749 0.682589 487.704 1.32596C446.186 1.96934 405.077 1.32596 363.731 0.768368C343.004 0.489573 322.535 0.339455 302.044 0.318009C291.799 0.318009 281.554 0.360896 271.266 0.382342C268.715 0.403788 266.121 0.382344 263.421 0.468127C260.763 0.575356 258.191 0.746924 255.598 0.939936C250.432 1.32596 245.309 1.73342 240.165 2.05511C228.698 2.78426 217.338 2.8486 205.958 2.46258C194.555 2.07656 183.131 1.81922 171.749 1.71199C166.048 1.6691 160.347 1.6262 154.602 1.77632C149.072 2.03367 143.478 1.47608 137.648 1.3903C126.074 1.15439 114.585 1.54041 102.733 3.3633C100.032 3.85655 97.2027 4.7144 94.6092 6.23706C92.0157 7.73826 89.7437 9.90426 88.1148 12.4563C86.4644 14.9869 85.4784 17.8178 84.9211 20.6057C84.6425 22.0212 84.471 23.3508 84.3639 24.7019C84.2138 26.0744 84.1495 27.3826 84.0852 28.6479C83.528 38.9419 83.3136 49.1072 83.1421 59.2939C82.7992 79.6245 82.8849 99.805 83.2279 119.535C83.3136 124.596 83.5923 129.143 83.9566 131.888C84.1924 133.282 84.3424 134.14 84.6425 134.654C84.9211 135.105 85.3284 135.062 85.95 133.861C87.0002 131.695 87.3003 126.033 87.5789 121.916C87.7718 116.468 87.9862 110.957 88.1791 105.209C88.3291 101.178 88.4363 97.1458 88.522 93.1139C88.7149 82.6484 88.8864 72.1614 89.0793 61.6744L89.5723 39.5209C89.6794 35.8323 89.7866 32.1436 89.9795 28.4978C90.151 24.852 90.3868 21.3778 91.5656 18.3753C92.6802 15.3515 94.6521 12.8423 97.3099 11.191C99.9891 9.51824 103.204 8.76764 106.805 8.31728C114.007 7.28788 121.294 6.77318 128.603 6.60161C132.526 6.51583 136.469 6.51583 140.392 6.6445C144.293 6.75173 148.279 7.03053 152.416 6.94475C160.347 6.6445 168.148 6.75175 176.057 6.83754C183.945 6.94477 191.811 7.13776 199.656 7.438C207.501 7.73824 215.452 8.05993 223.361 8.03848C231.292 8.03848 239.222 7.73824 247.088 7.26643L258.834 6.5373C260.763 6.43007 262.714 6.32284 264.6 6.30139H270.408C286.098 6.36573 301.787 6.4086 317.477 6.47294C380.213 6.6874 443.014 6.83752 506.801 6.58017C539.295 6.6445 571.81 6.62306 604.282 6.34426C612.191 6.25848 620.486 6.25848 628.395 6.36571C637.804 6.4086 711.965 6.66595 734.663 6.75173C748.124 6.88041 760.213 7.052 775.109 6.98766C786.469 6.94477 797.893 6.9233 810.132 7.03053C824.921 7.1592 839.71 7.30932 854.478 7.438C871.947 7.63101 889.372 7.8026 906.819 7.99561C920.258 8.12428 933.805 8.27438 947.136 8.40306C965.569 8.61752 984.174 8.85344 1002.86 9.0679C1007.54 9.11079 1012.23 9.17513 1016.92 9.21802C1021.62 9.32525 1026.4 9.13224 1030.51 9.75416C1032.59 10.0758 1034.54 10.5905 1036.24 11.5127C1037.18 11.8559 1037.91 12.4563 1038.68 12.9925C1039.52 13.4643 1040.05 14.2792 1040.76 14.9226C1043.31 17.7534 1044.64 21.8282 1045.32 26.0959C1046.01 30.385 1046.05 34.953 1045.92 39.5424C1045.8 44.1532 1045.43 48.8284 1045.41 53.7395V81.9836C1045.41 91.3554 1045.43 100.727 1045.45 110.056C1045.45 114.731 1045.45 119.385 1045.47 124.039V131.009L1045.5 132.746V133.303V134.247C1045.65 145.678 1045.35 164.057 1046.57 172.571C1047.06 176.045 1047.79 178.382 1048.54 178.704C1049.03 178.919 1049.53 178.275 1049.93 176.517L1049.95 176.474Z" fill="#32E6E2"/>
<path d="M1049.38 62.0605C1042.45 59.9803 1025.5 60.6666 1014.67 60.6022C996.498 60.5593 978.279 60.5379 960.104 60.495C943.428 60.4521 926.796 60.4307 910.142 60.3878C893.509 60.4092 876.898 60.7738 860.265 61.0312C845.24 61.2885 830.172 61.5458 815.083 61.5458C796.264 61.503 777.938 61.0312 759.376 60.688C726.754 60.0875 694.904 61.0526 662.26 61.6102C629.016 62.1892 595.944 61.7174 562.786 61.7389C554.384 61.7389 546.089 61.8246 537.816 61.9319C529.564 62.0391 521.333 62.1249 513.124 62.2321C504.936 62.3393 496.684 62.5967 488.432 62.854C480.202 63.1543 471.843 63.283 463.612 63.7333C446.894 64.7842 430.111 65.1058 413.436 65.1058C405.119 65.0201 396.653 65.1058 388.722 63.9263C386.772 63.6046 384.929 63.1328 383.535 62.3393C382.207 61.5673 381.071 60.2591 380.492 58.8222C379.249 55.9271 380.149 51.9596 380.235 47.3487C380.256 45.054 379.935 42.4377 378.799 40.0572C377.748 37.7196 375.862 35.5964 373.655 34.2239C371.447 32.8514 369.153 32.1651 366.989 31.629C364.802 31.1357 362.638 30.7711 360.516 30.5138C352.006 29.5058 343.712 29.2485 335.417 28.841C327.122 28.4764 318.784 28.1333 310.361 28.1548C301.916 28.1762 293.492 28.7124 285.069 29.4415C275.659 30.3208 266.314 31.3287 257.012 33.6449C254.697 34.2883 252.382 34.9531 250.067 35.961C247.796 36.969 245.352 38.1699 243.423 40.7005C242.951 41.3225 242.609 41.9873 242.33 42.5878C242.03 43.1883 241.773 43.8531 241.558 44.5179C241.13 45.8475 240.915 47.263 240.894 48.614C240.83 51.3377 241.408 53.6752 241.408 55.5839C241.43 57.4711 240.958 59.0581 239.801 60.5164C238.729 61.9533 237.293 63.0899 235.428 63.7762C231.72 65.2345 227.198 65.5562 222.739 65.642C213.694 65.7278 204.413 64.9557 195.046 64.4625C178.521 63.4545 161.824 63.5618 145.384 63.9049C137.196 64.0765 129.03 64.248 120.864 64.441C112.826 64.5697 104.789 64.6984 96.6652 64.827C88.4132 65.063 81.9402 66.1781 85.241 67.9581C86.7842 68.7945 91.4568 68.9875 94.7362 69.2234C99.1301 69.3736 103.588 69.6095 108.239 69.8239C111.519 69.974 114.798 70.0813 118.078 70.1027C126.608 70.1885 135.117 70.1027 143.627 69.9526C155.608 69.7596 167.568 69.4808 179.507 69.6095C191.424 69.6738 203.32 70.4673 215.409 70.8104C221.925 70.8748 228.505 71.1321 235.385 69.1805C238.772 68.194 242.394 66.0709 244.516 62.661C245.566 61.0097 246.274 58.9938 246.445 56.9993C246.617 55.0049 246.338 53.2249 246.167 51.6808C245.738 48.5926 245.995 46.255 247.281 44.0461C248.267 42.3304 251.011 40.9793 253.776 40.0143C259.413 38.0198 265.736 37.0977 271.93 36.2613C278.167 35.4463 284.469 35.0174 290.792 34.6099C297.115 34.2883 303.416 33.9666 309.696 34.0309C322.256 34.1167 335.009 34.8887 347.655 35.5107C359.53 36.6258 375.862 35.6822 374.405 47.9707C374.405 50.823 373.719 54.1685 374.448 58.1574C374.791 60.1304 375.712 62.2107 377.041 63.8191C378.263 65.4704 380.106 66.8858 381.971 67.6793C385.722 69.2449 389.087 69.4379 392.388 69.7596C395.667 70.0169 398.904 70.1242 402.14 70.167C415.022 70.3172 427.818 70.0813 440.678 69.7596C447.108 69.588 453.538 69.395 460.011 69.1162C466.591 68.6658 472.957 68.7302 479.387 68.6015C505.515 68.194 531.9 68.6015 558.242 67.9796C564.651 67.8724 571.381 67.7866 577.811 67.7866C585.441 67.7008 645.585 67.0789 663.996 66.8644C674.906 66.8215 684.701 66.8215 696.79 66.5856C705.985 66.414 715.266 66.2425 725.168 66.1781C737.15 66.1352 749.153 66.0709 761.113 66.028C775.259 66.0066 789.405 65.9637 803.551 65.9422C814.44 65.9422 825.414 65.9422 836.216 65.9637C851.156 66.0066 866.224 66.0709 881.399 66.1138C888.986 66.1138 896.574 66.1138 904.204 66.1352C911.813 66.1996 919.444 66.2639 927.074 66.3283C942.335 66.414 957.596 66.4998 972.792 66.5856C980.401 66.5856 987.989 66.5427 995.534 66.5213C999.306 66.5213 1003.08 66.4998 1006.85 66.4784H1012.49L1013.9 66.4569H1014.35H1015.12C1024.38 66.2854 1039.26 66.5856 1046.18 65.3632C1049.01 64.8699 1050.92 64.1193 1051.2 63.3902C1051.39 62.8969 1050.88 62.4251 1049.46 61.9962L1049.38 62.0605Z" fill="#32E6E2"/>
<path d="M1170.95 374.653C1169.34 376.069 1167.82 378.792 1165.97 381.623C1164.2 384.454 1162.01 387.414 1160.02 389.344C1156.63 392.625 1152.64 395.434 1148.42 397.622C1144.13 399.809 1139.55 401.482 1134.83 402.769C1126.17 405.149 1117.13 406.307 1108.04 407.079C1098.95 407.852 1089.71 408.216 1080.54 408.795C1072.25 409.246 1063.93 409.481 1055.57 409.331C1045.15 409.138 1035.04 408.216 1024.77 407.444C1006.7 406.007 988.868 406.801 970.778 407.637C952.323 408.495 933.976 408.645 915.629 408.817C897.067 408.902 879.32 409.825 860.973 408.945C858.636 408.795 856.343 408.666 854.028 408.516C851.713 408.323 849.42 408.045 847.126 407.787C842.518 407.294 837.996 406.629 833.666 405.407C829.358 404.206 825.2 402.447 821.577 400.024C817.934 397.665 814.847 394.469 812.661 390.909C810.453 387.328 809.189 383.146 808.417 378.857C807.645 374.568 807.345 370.107 807.238 365.625C807.131 361.121 807.238 356.575 807.302 351.942C807.41 347.332 807.303 342.528 807.131 337.895C806.488 317.093 806.402 296.998 806.81 276.217C807.174 257.946 807.26 239.416 805.373 221.702C804.88 217.156 803.637 213.575 801.944 215.44C801.151 216.319 801.065 218.914 800.937 220.737C800.937 223.182 800.872 225.67 800.787 228.243C800.744 230.045 800.722 231.867 800.744 233.69L800.915 247.823C801.065 261.119 801.237 274.416 801.387 287.691C801.451 301.995 801.494 316.192 801.558 330.346V340.941C801.58 344.479 801.537 347.868 801.387 351.428C801.151 358.462 800.894 365.646 801.494 372.916C801.837 376.562 802.373 380.229 803.337 383.875C804.366 387.521 805.845 391.124 808.01 394.426C812.361 401.032 819.027 405.6 826.036 408.366C833.087 411.197 840.546 412.205 847.598 412.977L852.956 413.599L858.336 414.049C861.937 414.392 865.517 414.586 869.139 414.757C883.842 415.679 898.546 415.701 913.164 415.143C916.722 415.036 920.473 414.886 924.031 414.843C928.275 414.843 961.583 413.17 971.764 412.977C977.808 412.87 983.209 412.806 989.897 412.591C994.976 412.398 1000.1 412.334 1005.59 412.355C1012.21 412.462 1018.83 412.655 1025.48 412.913L1049.01 413.685C1055.06 413.835 1061.16 413.878 1067.19 413.942C1075.48 414.049 1083.97 413.856 1092.33 413.62C1100.75 413.406 1109.3 413.063 1117.88 412.119C1126.45 411.133 1135.07 409.524 1143.36 406.479C1147.48 404.913 1151.55 403.048 1155.32 400.646C1157.21 399.445 1159.01 398.115 1160.72 396.7C1161.58 395.992 1162.42 395.241 1163.23 394.469L1163.83 393.89L1164.02 393.697L1164.35 393.354C1166.3 391.295 1168.55 388.55 1170.3 385.591C1172.06 382.674 1173.22 379.629 1173.39 377.527C1173.54 375.812 1173.18 374.568 1172.53 374.182C1172.11 373.924 1171.55 374.053 1170.88 374.632L1170.95 374.653Z" fill="#32E6E2"/>
<path d="M877.069 177.718C880.563 179.777 888.943 179.111 894.323 179.154C903.347 179.24 912.392 179.197 921.416 179.176C937.984 179.133 954.466 178.811 970.992 178.318C978.451 178.082 985.931 177.868 993.433 177.911C1002.78 177.975 1011.89 178.597 1021.1 179.069C1029.18 179.455 1037.22 179.54 1045.28 179.347C1053.32 179.154 1061.34 178.704 1069.44 178.361C1085.94 177.675 1102.34 178.018 1118.65 179.069C1122.79 179.348 1126.84 179.626 1130.89 179.905C1134.87 180.227 1138.75 180.656 1142.59 181.406C1150.14 182.972 1157.51 185.888 1162.7 191.636C1165.29 194.51 1167.26 198.005 1168.38 201.823C1169.53 205.64 1169.96 209.543 1170.26 213.768C1170.93 222.067 1171.42 230.345 1171.78 238.644C1172.58 255.286 1173.22 271.456 1173.65 288.12C1174.14 306.713 1173.43 324.685 1172.04 343.235C1171.74 347.332 1171.44 351.428 1171.16 355.502C1170.84 359.556 1170.78 363.845 1170.37 367.512C1169.51 375.04 1166.6 382.052 1161.77 387.95C1159.35 390.952 1157.27 393.676 1159.65 394.148C1160.79 394.341 1162.8 392.882 1164.17 391.81C1165.91 390.245 1167.56 388.507 1169.1 386.556C1170.2 385.183 1171.14 383.704 1172 382.16C1174.14 378.128 1175.51 373.731 1176.18 369.271C1176.41 367.705 1176.56 366.118 1176.65 364.574L1176.86 360.092L1177.27 351.149L1178 333.263C1179.01 307.614 1179.82 282.265 1178.73 256.852C1178.17 244.156 1177.14 231.503 1175.96 218.828C1175.66 215.654 1175.34 212.503 1175.04 209.329C1174.61 205.962 1174.08 202.573 1172.9 199.292C1171.87 195.968 1170.15 192.816 1168.12 189.92C1166.04 187.025 1163.38 184.602 1160.55 182.521C1157.64 180.42 1154.44 178.833 1151.21 177.525C1147.93 176.345 1144.61 175.358 1141.24 174.758C1139.57 174.393 1137.87 174.222 1136.2 173.943C1134.53 173.771 1132.84 173.578 1131.19 173.45C1127.89 173.214 1124.59 173.021 1121.29 172.914C1118.07 172.785 1114.73 172.656 1111.51 172.549C1109.6 172.442 1101.14 172.335 1092.01 172.485C1082.9 172.699 1073.15 172.914 1068.56 173.021C1063.14 173.107 1058.27 173.128 1052.29 173.385C1047.72 173.578 1043.14 173.729 1038.23 173.729L1020.38 173.621C1013.34 173.557 1006.31 173.514 999.284 173.45C993.862 173.407 988.439 173.385 983.038 173.343C968.205 173.107 953.052 173 937.877 173C930.289 173 922.702 173.021 915.135 173.042C911.363 173.042 907.591 173.085 903.818 173.107C901.932 173.107 900.067 173.128 898.181 173.15H895.373L894.666 173.193H894.452H894.066C889.458 173.364 882.063 173.085 878.634 174.308C877.241 174.801 876.319 175.552 876.19 176.281C876.105 176.774 876.383 177.246 877.091 177.675L877.069 177.718Z" fill="#32E6E2"/>
<path d="M1035.72 229.401C1038.44 228.415 1040.27 223.761 1042.09 221.059C1043.16 219.472 1044.25 217.885 1045.39 216.384L1045.77 215.891L1045.97 215.655C1046.1 215.526 1046.22 215.311 1046.42 215.29C1046.72 215.462 1046.74 215.848 1046.82 216.148L1047.6 219.279C1047.92 220.544 1048.28 221.81 1048.69 223.075C1049.48 225.563 1050.43 228.136 1051.73 230.559C1054.3 235.406 1058.16 239.502 1062.54 242.548C1064.49 243.942 1066.56 245.164 1068.6 246.301C1069.61 246.88 1070.59 247.437 1071.6 248.016L1073 248.896L1073.62 249.346C1073.79 249.475 1073.87 249.56 1073.98 249.668C1074.54 250.118 1074.84 250.997 1074.26 251.533C1074.02 251.791 1073.7 251.941 1073.42 252.048L1072.76 252.263L1071.86 252.52C1069.35 253.142 1066.52 253.378 1063.52 254.043C1062.19 254.364 1060.82 254.729 1059.36 255.522C1058.63 255.887 1057.86 256.423 1057.13 257.152C1056.41 257.86 1055.66 259.039 1055.4 260.176C1055.1 261.334 1055.1 262.599 1055.48 263.757C1055.68 264.358 1055.96 264.937 1056.17 265.28C1056.41 265.709 1056.66 266.052 1056.9 266.374C1057.88 267.639 1058.81 268.518 1059.71 269.419C1063.33 272.829 1066.54 276.11 1069.87 279.928C1071.54 281.815 1073.1 283.745 1074.47 285.718C1075.14 286.704 1075.76 287.691 1076.23 288.677C1076.7 289.621 1077 290.608 1076.98 291.165C1076.98 291.465 1076.94 291.53 1076.87 291.594C1076.81 291.658 1076.75 291.723 1076.64 291.723C1076.32 291.873 1075.33 292.152 1074.26 292.216C1072.09 292.409 1069.57 292.323 1067.1 292.259C1056.98 291.873 1047.02 292.323 1036.84 292.774C1032.49 292.945 1028.18 292.902 1023.91 292.645C1021.79 292.495 1019.67 292.302 1017.67 291.937C1017.18 291.851 1016.69 291.744 1016.24 291.616C1015.83 291.53 1015.23 291.294 1015.12 291.251C1014.8 291.079 1014.52 290.822 1014.48 290.479C1014.46 290.222 1014.59 290.007 1014.74 289.836L1014.85 289.728C1014.85 289.728 1014.89 289.728 1015.02 289.535L1015.75 288.72C1019.22 285.16 1022.86 281.279 1026.01 277.204C1027.62 275.167 1029.14 273.108 1030.62 270.899C1031.35 269.805 1032.08 268.669 1032.74 267.468C1033.43 266.267 1034.07 265.044 1034.61 263.457C1034.78 262.9 1034.95 262.299 1035.04 261.549C1035.12 260.798 1035.08 259.919 1034.86 259.168C1034.65 258.375 1034.24 257.796 1033.9 257.131C1033.45 256.595 1032.98 255.994 1032.46 255.63C1030.36 254.021 1028.33 253.549 1026.48 253.077C1024.64 252.649 1022.88 252.348 1021.34 251.898C1020.93 251.791 1020.61 251.662 1020.27 251.555C1019.93 251.448 1019.65 251.255 1019.56 251.233C1019.37 251.104 1019.17 250.933 1019.11 250.697C1019.07 250.568 1019.11 250.418 1019.17 250.311C1019.2 250.247 1019.24 250.204 1019.28 250.139L1019.48 249.818C1019.95 249.067 1020.53 248.295 1021.17 247.523C1022.41 245.979 1023.8 244.435 1025.22 242.912C1028.63 239.266 1032.12 235.535 1035.27 231.482C1038.4 227.428 1041.25 223.075 1042.99 218.164C1043.89 215.612 1043.48 213.275 1041.51 213.553C1040.61 213.661 1039.97 214.797 1039.37 215.547C1038.72 216.641 1037.99 217.735 1037.18 218.829C1036.6 219.644 1036.04 220.394 1035.49 221.166C1034.05 223.225 1032.51 225.262 1030.92 227.278C1026.46 233.004 1021.6 238.366 1016.95 244.392C1016.28 245.271 1015.64 246.172 1015.02 247.201C1014.89 247.416 1014.63 247.823 1014.46 248.252C1014.29 248.66 1014.07 249.067 1013.97 249.496C1013.67 250.332 1013.75 251.212 1013.88 252.048C1014.12 252.498 1014.27 252.992 1014.57 253.399C1014.89 253.785 1015.15 254.236 1015.51 254.579C1015.9 254.9 1016.32 255.222 1016.75 255.522C1017.22 255.801 1017.65 255.973 1017.97 256.123C1019.35 256.68 1020.63 257.024 1021.83 257.302C1024.21 257.86 1026.51 258.289 1028.09 259.082C1028.93 259.468 1029.29 259.919 1029.46 260.283C1029.68 260.712 1029.66 260.584 1029.38 261.527C1028.73 263.157 1027.41 265.173 1026.12 266.996C1023.46 270.727 1020.5 274.395 1017.48 277.933C1015.96 279.692 1014.42 281.429 1012.83 283.187C1012.04 284.088 1011.22 284.967 1010.37 286.083C1009.77 286.855 1009.1 287.948 1008.8 288.956C1008.48 290.007 1008.5 291.101 1008.76 292.152C1009.23 293.203 1009.77 294.253 1010.73 294.961C1011.14 295.39 1011.74 295.583 1012.25 295.905C1012.72 296.226 1013.47 296.419 1013.84 296.527C1015.4 296.977 1016.8 297.191 1018.15 297.342C1020.85 297.642 1023.44 297.749 1026.03 297.835C1031.18 297.985 1036.3 298.028 1041.44 298.092C1049.48 298.328 1057.5 298.65 1065.64 298.521C1067.68 298.478 1069.76 298.457 1071.79 298.414C1072.42 298.371 1074.02 298.392 1076.53 297.878C1077.2 297.706 1077.86 297.556 1078.68 297.191C1079.43 296.891 1080.5 296.226 1081.2 295.326C1081.59 294.897 1081.85 294.339 1082.1 293.803C1082.28 293.245 1082.51 292.645 1082.51 292.066C1082.64 290.886 1082.43 289.9 1082.19 288.999C1081.65 287.198 1080.84 285.825 1080.03 284.517C1079.21 283.23 1078.35 282.072 1077.54 281.021C1075.91 278.92 1074.47 277.225 1073.6 276.132C1071.49 273.558 1069.59 271.113 1066.87 268.454C1065.84 267.468 1064.81 266.481 1063.76 265.473C1062.77 264.508 1061.7 263.457 1061.12 262.557C1061.06 262.449 1060.95 262.299 1060.93 262.213C1060.91 262.128 1060.86 262.106 1060.86 262.02C1060.82 261.892 1060.82 261.742 1060.86 261.613C1060.93 261.334 1061.01 261.205 1061.44 260.819C1062.28 260.133 1063.91 259.533 1065.54 259.082C1067.49 258.525 1069.61 258.117 1071.82 257.517C1072.95 257.195 1074.02 256.895 1075.35 256.273C1077.09 255.415 1078.61 254.085 1079.1 252.305C1079.43 250.954 1079.3 249.432 1078.48 248.252C1078.18 247.587 1077.6 247.094 1077.09 246.558C1076.83 246.279 1076.55 246 1076.3 245.85L1075.7 245.4C1074.13 244.306 1072.69 243.47 1071.32 242.59C1067.55 240.189 1064.08 237.658 1061.34 234.484C1058.57 231.31 1056.45 227.686 1055.14 223.59C1054.43 221.488 1053.83 219.343 1053.28 217.156L1052.87 215.483L1052.59 214.304C1052.44 213.746 1052.33 213.189 1052.16 212.631C1051.56 210.358 1050.58 208.621 1049.2 207.913C1048.82 207.72 1048.39 207.57 1047.94 207.377L1045.92 207.634C1045.26 207.892 1044.57 208.106 1043.91 208.835C1043.22 209.393 1042.58 210.143 1041.96 210.894C1041.34 211.58 1040.61 212.588 1040.42 212.846C1039.69 213.832 1039 214.818 1038.34 215.826L1037.37 217.327L1037.14 217.713L1037.07 217.842L1036.94 218.057C1035.46 220.587 1032.89 224.576 1033.04 227.107C1033.09 228.136 1033.49 228.972 1034.14 229.358C1034.54 229.616 1035.06 229.68 1035.64 229.487L1035.72 229.401Z" fill="#32E6E2"/>
<path d="M1049.63 320.052V319.452L1049.29 307.635C1049.25 305.684 1049.14 303.668 1049.18 301.759C1049.18 300.794 1049.23 299.936 1049.31 298.95C1049.4 297.92 1049.42 296.805 1049.42 295.797V295.154C1049.42 294.403 1044.04 294.489 1044.04 295.175V295.776C1044.04 296.741 1044.02 297.599 1043.93 298.564C1043.85 299.55 1043.8 300.665 1043.8 301.695C1043.76 303.754 1043.89 305.705 1043.91 307.721L1044.23 319.688V320.31C1044.27 321.039 1049.63 320.76 1049.63 320.052Z" fill="#32E6E2"/>
<path d="M1146.6 329.188C1145.03 327.022 1140.79 327.387 1138.13 327.215C1133.65 326.894 1129.13 326.786 1124.65 326.679C1116.4 326.55 1108.17 326.872 1099.98 327.58C1096.27 327.966 1092.56 328.288 1088.86 328.459C1084.23 328.674 1079.66 328.33 1075.03 328.288C1066.91 328.137 1059.13 329.832 1051.18 331.269C1043.1 332.834 1034.91 333.542 1026.81 335C1022.71 335.751 1018.75 336.716 1014.87 337.96C1010.97 339.139 1007.13 340.469 1003.25 341.884C995.362 344.565 987.324 346.366 979.265 348.404C971.185 350.462 963.512 353.208 955.924 356.682C947.458 360.542 939.227 364.016 930.589 367.448C923.002 370.45 915.457 373.989 909.327 379.286C907.741 380.658 906.948 382.481 908.491 383.596C909.22 384.111 910.27 383.661 911.042 383.425C912.006 382.953 912.992 382.481 914.042 382.031C914.771 381.709 915.5 381.366 916.207 381.001L921.716 378.106C926.924 375.425 932.154 372.788 937.491 370.343C960.468 359.877 983.959 352.757 1008.24 346.002C1014.48 344.479 1020.61 342.978 1026.98 341.412C1028.5 341.026 1030.11 340.64 1031.65 340.383C1032.57 340.233 1036.62 339.396 1040.99 338.517C1045.39 337.681 1050.13 336.866 1052.33 336.544C1054.99 336.222 1057.37 335.987 1060.28 335.472C1062.49 335.043 1064.74 334.743 1067.17 334.464C1070.08 334.142 1073 333.885 1075.93 333.713C1079.38 333.456 1082.83 333.242 1086.28 333.113C1088.94 332.984 1091.62 332.791 1094.26 332.791C1101.54 332.662 1109 332.727 1116.44 332.727C1120.17 332.813 1123.9 332.791 1127.61 332.898C1129.47 332.941 1131.32 332.984 1133.16 333.027L1135.92 333.113L1137.3 333.156H1137.64H1137.75H1137.94C1140.21 333.07 1143.81 333.628 1145.59 332.512C1146.32 332.062 1146.83 331.354 1146.94 330.625C1147.03 330.132 1146.94 329.639 1146.6 329.21V329.188Z" fill="#32E6E2"/>
<path d="M827.193 329.639L830.323 329.188C870.725 323.484 912.542 328.202 950.652 342.764L953.674 343.943C957.082 345.316 959.182 340.362 955.646 338.946L952.559 337.745C913.593 322.84 870.854 318.037 829.572 323.87L826.379 324.342C822.628 324.921 823.549 330.239 827.193 329.66V329.639Z" fill="#32E6E2"/>
<path d="M107.512 311.303C107.769 311.539 108.026 311.796 108.262 312.053C108.819 312.675 109.269 313.34 109.526 313.941C109.762 314.584 109.805 314.884 109.698 315.485C109.505 316.621 108.476 317.865 107.254 318.509C106.075 319.152 104.446 319.281 102.753 318.98C101.982 318.852 100.931 318.53 100.16 318.251C99.3881 317.951 98.7666 317.608 98.3164 317.179C97.4162 316.321 97.0733 315.206 97.3519 313.898C97.652 312.59 98.5951 311.174 99.8382 310.188C101.017 309.308 102.196 308.987 103.632 309.265C105.047 309.544 106.633 310.466 107.833 311.603C108.09 311.839 108.326 312.096 108.497 312.311C108.669 312.525 108.905 312.311 109.419 312.139C109.762 311.646 110.534 311.646 111.177 311.646C111.82 311.646 112.548 311.474 112.784 310.595C113.084 310.08 113.063 309.373 112.741 308.987C112.334 308.493 111.97 308.086 111.563 307.7C109.676 305.941 107.49 304.569 104.725 303.968C101.982 303.304 98.6594 304.183 96.516 305.941C94.4584 307.614 92.7865 309.845 92.1221 312.697C91.8006 314.112 91.8006 315.699 92.2507 317.2C92.7008 318.702 93.5582 320.053 94.6727 321.082C95.7873 322.112 97.0733 322.798 98.295 323.248C99.5167 323.677 100.524 323.977 101.832 324.235C104.296 324.664 107.169 324.621 109.784 323.248C111.091 322.54 112.141 321.683 113.063 320.546C113.963 319.431 114.692 318.037 114.992 316.536C115.121 315.828 115.228 314.927 115.099 314.112C115.013 313.276 114.778 312.547 114.499 311.839C113.92 310.466 113.127 309.373 112.27 308.429C111.905 308.043 111.541 307.657 111.155 307.314C109.698 306.049 106.633 310.531 107.512 311.281V311.303Z" fill="#32E6E2"/>
<path d="M158.395 291.53C158.03 291.487 157.688 291.401 157.345 291.315C156.53 291.101 155.78 290.8 155.244 290.457C154.687 290.05 154.494 289.835 154.237 289.278C153.765 288.227 153.915 286.619 154.58 285.418C155.201 284.217 156.487 283.209 158.052 282.522C158.759 282.201 159.831 281.879 160.624 281.665C161.439 281.472 162.146 281.429 162.746 281.514C163.968 281.707 164.868 282.458 165.361 283.68C165.854 284.946 165.854 286.64 165.361 288.141C164.868 289.535 164.075 290.479 162.724 291.015C161.396 291.572 159.574 291.701 157.923 291.422C157.58 291.379 157.237 291.294 156.98 291.208C156.723 291.122 156.637 291.444 156.316 291.851C156.316 292.452 155.673 292.881 155.115 293.245C154.58 293.61 154.065 294.167 154.365 295.004C154.387 295.604 154.815 296.183 155.308 296.312C155.909 296.505 156.445 296.634 157.002 296.719C159.531 297.127 162.124 297.041 164.761 295.99C167.397 295.004 169.669 292.43 170.462 289.771C171.234 287.24 171.384 284.431 170.334 281.707C169.798 280.356 168.919 279.027 167.697 278.04C166.497 277.054 165.018 276.41 163.517 276.174C162.017 275.939 160.581 276.11 159.317 276.41C158.052 276.732 157.066 277.054 155.823 277.568C153.529 278.576 151.172 280.228 149.778 282.844C149.093 284.152 148.707 285.46 148.557 286.919C148.428 288.356 148.6 289.9 149.2 291.315C149.479 291.98 149.907 292.773 150.464 293.395C151 294.039 151.622 294.532 152.222 294.961C153.465 295.776 154.73 296.226 155.973 296.548C156.487 296.677 157.002 296.784 157.516 296.848C159.445 297.084 159.467 291.658 158.331 291.53H158.395Z" fill="#32E6E2"/>
<path d="M221.175 256.337C220.811 256.294 220.468 256.209 220.125 256.123C219.31 255.908 218.56 255.608 218.024 255.265C217.467 254.857 217.274 254.643 217.017 254.085C216.545 253.035 216.695 251.426 217.36 250.225C217.981 249.024 219.267 248.016 220.832 247.33C221.539 247.008 222.611 246.665 223.404 246.472C224.219 246.279 224.926 246.236 225.526 246.322C226.748 246.515 227.648 247.266 228.141 248.488C228.634 249.753 228.634 251.448 228.141 252.949C227.648 254.343 226.855 255.286 225.505 255.823C224.176 256.38 222.354 256.509 220.704 256.23C220.361 256.187 220.018 256.101 219.76 256.016C219.503 255.93 219.417 256.251 219.096 256.659C219.096 257.259 218.453 257.688 217.896 258.053C217.36 258.417 216.845 258.975 217.146 259.811C217.167 260.412 217.596 260.991 218.089 261.12C218.689 261.313 219.225 261.441 219.782 261.527C222.311 261.935 224.905 261.849 227.541 260.798C230.177 259.811 232.449 257.238 233.242 254.579C234.014 252.048 234.164 249.239 233.114 246.515C232.578 245.164 231.699 243.834 230.477 242.848C229.277 241.861 227.798 241.218 226.298 240.982C224.797 240.746 223.361 240.918 222.097 241.218C220.832 241.54 219.846 241.861 218.603 242.376C216.31 243.384 213.951 245.035 212.558 247.652C211.872 248.96 211.487 250.268 211.337 251.726C211.208 253.163 211.379 254.707 211.98 256.123C212.258 256.788 212.687 257.581 213.244 258.203C213.78 258.846 214.402 259.34 215.002 259.769C216.245 260.583 217.51 261.034 218.753 261.356C219.267 261.484 219.782 261.591 220.296 261.656C222.225 261.892 222.247 256.466 221.111 256.337H221.175Z" fill="#32E6E2"/>
<path d="M284.062 200.922C283.697 200.879 283.355 200.793 283.012 200.707C282.197 200.493 281.447 200.193 280.911 199.849C280.354 199.442 280.161 199.227 279.904 198.67C279.432 197.619 279.582 196.011 280.247 194.81C280.868 193.609 282.154 192.601 283.719 191.914C284.426 191.593 285.498 191.271 286.291 191.057C287.105 190.864 287.813 190.821 288.413 190.907C289.635 191.1 290.535 191.85 291.028 193.073C291.521 194.338 291.521 196.032 291.028 197.533C290.535 198.927 289.742 199.871 288.391 200.407C287.063 200.965 285.241 201.093 283.59 200.814C283.247 200.772 282.904 200.686 282.647 200.6C282.39 200.514 282.304 200.836 281.983 201.243C281.983 201.844 281.34 202.273 280.782 202.637C280.247 203.002 279.732 203.56 280.032 204.396C280.054 204.996 280.482 205.575 280.975 205.704C281.576 205.897 282.111 206.026 282.669 206.112C285.198 206.519 287.791 206.433 290.428 205.382C293.064 204.396 295.336 201.822 296.129 199.163C296.901 196.633 297.051 193.823 296 191.1C295.465 189.748 294.586 188.419 293.364 187.432C292.164 186.446 290.685 185.802 289.184 185.567C287.684 185.331 286.248 185.502 284.983 185.802C283.719 186.124 282.733 186.446 281.49 186.96C279.196 187.968 276.839 189.62 275.445 192.236C274.76 193.544 274.374 194.853 274.224 196.311C274.095 197.748 274.267 199.292 274.867 200.707C275.145 201.372 275.574 202.166 276.131 202.787C276.667 203.431 277.289 203.924 277.889 204.353C279.132 205.168 280.397 205.618 281.64 205.94C282.154 206.069 282.669 206.176 283.183 206.24C285.112 206.476 285.134 201.05 283.998 200.922H284.062Z" fill="#32E6E2"/>
<path d="M342.897 229.208C342.533 229.165 342.19 229.079 341.847 228.994C341.033 228.779 340.282 228.479 339.747 228.136C339.189 227.728 338.996 227.514 338.739 226.956C338.268 225.906 338.418 224.297 339.082 223.096C339.704 221.895 340.99 220.887 342.554 220.201C343.262 219.879 344.333 219.536 345.126 219.343C345.941 219.15 346.648 219.107 347.248 219.193C348.47 219.386 349.37 220.137 349.863 221.359C350.356 222.624 350.356 224.319 349.863 225.82C349.37 227.214 348.577 228.157 347.227 228.693C345.898 229.251 344.076 229.38 342.426 229.101C342.083 229.058 341.74 228.972 341.483 228.886C341.225 228.801 341.14 229.122 340.818 229.53C340.818 230.13 340.175 230.559 339.618 230.924C339.082 231.288 338.568 231.846 338.868 232.682C338.889 233.283 339.318 233.862 339.811 233.991C340.411 234.184 340.947 234.312 341.504 234.398C344.033 234.806 346.627 234.72 349.263 233.669C351.899 232.682 354.171 230.109 354.964 227.45C355.736 224.919 355.886 222.11 354.836 219.386C354.3 218.035 353.421 216.705 352.2 215.719C350.999 214.732 349.52 214.09 348.02 213.854C346.52 213.618 345.084 213.789 343.819 214.09C342.554 214.411 341.568 214.732 340.325 215.247C338.032 216.255 335.674 217.906 334.281 220.523C333.595 221.831 333.209 223.139 333.059 224.597C332.931 226.034 333.102 227.578 333.702 228.994C333.981 229.659 334.41 230.452 334.967 231.074C335.503 231.717 336.124 232.211 336.724 232.639C337.968 233.454 339.232 233.905 340.475 234.226C340.99 234.355 341.504 234.462 342.019 234.527C343.948 234.763 343.969 229.337 342.833 229.208H342.897Z" fill="#32E6E2"/>
<path d="M398.282 200.922C397.918 200.879 397.575 200.793 397.232 200.707C396.417 200.493 395.667 200.193 395.131 199.849C394.574 199.442 394.381 199.227 394.124 198.67C393.652 197.619 393.802 196.011 394.467 194.81C395.088 193.609 396.374 192.601 397.939 191.914C398.646 191.593 399.718 191.271 400.511 191.057C401.326 190.864 402.033 190.821 402.633 190.907C403.855 191.1 404.755 191.85 405.248 193.073C405.741 194.338 405.741 196.032 405.248 197.533C404.755 198.927 403.962 199.871 402.612 200.407C401.283 200.965 399.461 201.093 397.811 200.814C397.468 200.772 397.125 200.686 396.867 200.6C396.61 200.514 396.525 200.836 396.203 201.243C396.203 201.844 395.56 202.273 395.003 202.637C394.467 203.002 393.952 203.56 394.253 204.396C394.274 204.996 394.703 205.575 395.196 205.704C395.796 205.897 396.332 206.026 396.889 206.112C399.418 206.519 402.012 206.433 404.648 205.382C407.284 204.396 409.556 201.822 410.349 199.163C411.121 196.633 411.271 193.823 410.221 191.1C409.685 189.748 408.806 188.419 407.584 187.432C406.384 186.446 404.905 185.802 403.405 185.567C401.904 185.331 400.468 185.502 399.204 185.802C397.939 186.124 396.953 186.446 395.71 186.96C393.417 187.968 391.059 189.62 389.666 192.236C388.98 193.544 388.594 194.853 388.444 196.311C388.315 197.748 388.487 199.292 389.087 200.707C389.366 201.372 389.794 202.166 390.352 202.787C390.887 203.431 391.509 203.924 392.109 204.353C393.352 205.168 394.617 205.618 395.86 205.94C396.374 206.069 396.889 206.176 397.403 206.24C399.332 206.476 399.354 201.05 398.218 200.922H398.282Z" fill="#32E6E2"/>
<path d="M5.80855 236.028C6.45156 230.945 6.28009 222.367 6.30152 213.103C6.30152 203.839 6.58016 193.888 7.43751 186.21C7.75902 182.993 8.20913 179.776 8.72354 176.581C9.21652 173.364 9.83809 170.319 10.8026 167.381C12.7317 161.526 16.0968 156.25 20.6193 152.069C25.1418 147.865 30.6288 144.584 36.4374 142.053C42.2674 139.48 48.376 137.678 54.6561 136.649C66.1874 134.697 78.126 135.319 90.1075 135.941C96.0875 136.263 102.153 136.649 108.198 136.799C114.242 136.971 120.286 137.035 126.288 137.078L144.292 137.249L162.254 137.914C174.278 138.408 186.302 138.794 198.348 139.051C220.103 139.523 241.901 139.716 263.742 139.673C270.558 139.673 277.31 139.63 284.083 139.544C290.813 139.458 297.501 139.373 304.209 139.287C317.584 139.18 330.916 139.201 344.333 139.287C367.889 139.415 391.187 139.351 414.4 139.952C420.187 140.123 425.996 140.338 431.762 140.702C437.463 141.11 443.379 141.517 448.587 142.697C449.166 142.868 449.895 143.018 450.323 143.211C450.73 143.447 451.052 143.447 451.674 143.898C452.767 144.627 453.817 145.485 454.846 146.364C456.925 148.165 458.704 150.16 460.161 152.369C463.076 156.486 463.591 162.062 463.912 167.853C464.362 179.691 464.041 191.765 463.891 203.753C463.698 215.762 463.505 227.771 463.333 239.759L463.119 257.752C463.098 263.736 462.926 269.741 463.076 275.853C463.398 287.97 464.191 299.872 464.405 311.817C464.534 317.844 464.555 323.848 464.448 329.81C464.319 335.815 464.234 341.884 464.255 347.868C464.298 353.83 464.341 359.791 464.384 365.732C464.341 371.587 464.319 377.463 462.841 382.524C462.09 385.055 460.976 387.371 459.347 389.558C457.718 391.746 455.853 393.719 453.753 395.456C449.53 398.887 444.386 401.311 438.899 402.919C427.861 406.072 415.943 407.037 404.026 407.508C391.938 407.98 379.806 407.873 367.675 407.723C355.565 407.465 343.455 407.23 331.366 406.972C307.189 406.372 283.011 405.535 258.791 404.678C234.507 403.841 210.501 403.069 186.431 402.705C174.428 402.512 162.275 402.554 150.251 402.876C138.205 403.155 126.095 403.455 113.92 403.755C86.8067 404.399 60.186 405.021 33.5653 405.664C30.3073 405.621 27.028 405.535 24.0701 404.978C22.5912 404.699 21.2194 404.249 19.9548 403.648C18.7117 403.026 17.3613 402.147 16.2682 401.203C11.6171 397.536 9.19508 391.617 8.03766 385.333C6.81593 379.05 6.5373 372.402 6.38726 365.753C6.25866 359.084 6.30152 352.328 6.30152 345.552C6.32296 333.628 6.30152 321.661 6.06575 309.673C5.76568 297.77 6.13005 285.954 6.43013 274.03C7.24461 250.118 6.17292 226.442 5.74425 203.324C5.44417 191.443 4.32962 182.05 2.57205 186.854C1.73614 189.105 1.56467 195.882 1.35033 200.665C1.22173 207.055 1.09312 213.511 0.964521 220.244C0.943087 224.983 0.900218 229.701 0.878784 234.419C0.921652 246.729 0.900222 258.953 0.514414 271.22C0.257209 279.885 0.0214338 288.57 0 297.299C0 306.07 0.364374 314.691 0.492976 323.355L0.835914 349.347C0.943083 358.011 0.921652 366.718 1.56466 375.533C1.95047 380.272 2.52918 385.055 3.79377 389.794C4.41535 392.175 5.31557 394.512 6.40869 396.807C7.63042 399.037 9.00218 401.268 10.8669 403.091C11.7243 404.077 12.7531 404.871 13.7819 405.685C14.7893 406.522 15.8181 407.144 16.997 407.809C19.3547 409.117 21.9696 409.803 24.4559 410.189C29.4285 410.875 34.0797 410.747 38.7737 410.704C48.0973 410.575 57.3139 410.103 66.5518 410.039C75.7898 409.91 85.0277 409.76 94.2442 409.632C112.677 409.374 131.089 409.095 149.479 408.838C167.848 408.431 186.152 408.774 204.542 409.181C241.301 410.082 278.103 410.961 315.033 411.862C333.509 412.205 352.028 412.548 370.59 412.891C379.892 413.02 389.216 413.106 398.582 412.977C407.949 412.805 417.401 412.419 426.875 411.176C429.297 410.875 431.719 410.404 434.119 410.018C436.52 409.417 438.963 409.01 441.342 408.216C446.144 406.886 450.838 404.742 455.189 401.954L458.318 399.616C459.304 398.78 460.204 397.815 461.147 396.914C463.033 395.091 464.555 393.032 465.991 390.781C467.385 388.486 468.435 385.977 469.142 383.425C469.785 380.873 470.214 378.321 470.407 375.833C470.835 370.858 470.814 366.054 470.814 361.25L470.75 346.967C470.75 342.227 470.792 337.466 470.857 332.727C470.921 327.945 470.964 323.119 470.857 318.337C470.685 308.986 470.192 299.207 469.764 289.943C469.678 287.198 469.121 279.67 468.971 269.698C468.971 259.575 468.971 246.858 469.013 233.626C469.142 220.394 469.271 206.691 469.378 194.617C469.506 182.522 469.614 172.077 469.164 165.236C468.906 161.226 468.52 157.108 466.849 153.034C466.356 152.068 465.927 151.061 465.37 150.16C464.77 149.302 464.234 148.337 463.591 147.565C462.948 146.793 462.369 145.935 461.619 145.163C460.911 144.391 460.204 143.683 459.454 142.975C457.954 141.582 456.367 140.23 454.589 139.051C453.645 138.493 452.145 137.743 451.181 137.55C450.109 137.228 449.037 136.949 448.008 136.778C443.829 135.984 439.649 135.555 435.234 135.234C421.816 134.29 408.399 134.097 394.017 133.882C376.634 133.668 359.294 133.711 341.954 133.882C321.485 134.097 300.994 134.526 280.568 135.062C264.878 135.319 248.996 135.276 233.392 134.976C211.83 134.526 190.053 133.754 168.169 132.66C162.682 132.403 157.174 132.124 151.687 131.867C146.178 131.566 140.627 131.416 135.118 131.352C124.08 131.18 113.084 131.137 102.153 130.58C91.2221 130.022 80.1408 129.036 68.8452 129.272C57.5711 129.465 45.954 131.373 35.3871 135.898C30.1144 138.129 24.9703 140.852 20.3192 144.434C15.6681 147.972 11.5314 152.455 8.61637 157.644C5.63708 162.791 3.96525 168.668 3.08646 174.201C2.65779 176.946 2.25054 179.691 1.92904 182.457C1.84331 183.143 1.75757 183.83 1.69327 184.516L1.62896 185.159C1.62896 185.159 1.52179 186.275 1.52179 186.296C0.900216 193.094 0.450109 201.93 0.535844 210.337C0.643013 218.743 1.24315 226.678 2.16481 231.653C2.91499 235.728 3.87951 238.387 4.65113 238.709C5.16554 238.923 5.57278 238.13 5.85142 236.049L5.80855 236.028Z" fill="#32E6E2"/>
<path d="M56.3934 345.937C58.8583 347.889 64.6883 347.16 68.4606 347.224C74.7836 347.31 81.128 347.396 87.5364 347.374C99.175 347.374 110.771 347.138 122.388 346.709C127.639 346.516 132.89 346.323 138.163 346.388C144.743 346.474 151.13 347.16 157.625 347.653C169.028 348.532 180.152 347.846 191.554 347.567C203.172 347.288 214.723 347.975 226.319 348.232C238.065 348.489 249.296 347.61 260.913 347.01C272.659 346.388 284.297 347.031 296.022 347.61C307.767 348.211 319.234 348.232 330.98 347.803C344.076 347.331 356.722 347.396 369.818 347.975C381.328 348.489 392.988 348.725 404.155 346.988C407.027 346.538 409.256 345.316 408.077 343.6C407.52 342.806 405.891 342.699 404.734 342.549C403.191 342.506 401.626 342.442 400.018 342.356C398.882 342.292 397.746 342.27 396.589 342.27L387.694 342.313C379.335 342.356 370.954 342.42 362.595 342.463C326.586 342.463 291.606 341.305 255.491 341.756C246.295 341.67 237.079 341.691 227.884 341.949C225.655 342.013 223.297 342.034 221.046 341.991C218.389 341.927 197.384 342.292 190.954 342.227C187.139 342.184 183.731 342.077 179.509 342.227C176.294 342.335 173.057 342.42 169.606 342.399L157.046 342.249L142.214 341.991C138.399 341.927 134.605 341.884 130.79 341.82C120.352 341.541 109.72 341.369 99.0464 341.305C93.7308 341.305 88.4152 341.305 83.1213 341.284C80.4635 341.284 77.8272 341.284 75.1694 341.284H71.2041L69.2322 341.327H68.7393H68.5892H68.3106C65.0741 341.498 59.8014 341.262 57.4008 342.57C56.4148 343.107 55.7933 343.879 55.729 344.608C55.6861 345.101 55.9004 345.573 56.4148 345.98L56.3934 345.937Z" fill="#32E6E2"/>
<path d="M73.2391 353.422V349.562L73.9892 200.193V196.247C74.0321 191.743 68.6522 191.743 68.6308 196.247V200.193L67.8806 349.584V353.444C67.8378 357.947 73.2176 357.926 73.2391 353.401V353.422Z" fill="#32E6E2"/>
<path d="M149.073 288.141C148.601 288.291 148.258 288.441 147.872 288.613C144.529 290.136 141.699 291.83 138.72 293.503L129.997 298.628C124.252 302.017 118.422 305.662 112.764 308.643C112.485 308.794 112.185 308.922 111.971 309.008C111.714 309.115 111.971 309.373 112.056 309.866C112.056 310.381 112.078 310.981 112.142 311.603C112.207 312.311 112.228 313.061 112.592 313.512C112.978 313.983 113.685 314.112 113.986 313.983C114.414 313.812 114.779 313.64 115.143 313.469C121.38 310.187 126.932 306.67 132.761 303.261L141.421 298.156C144.293 296.527 147.251 294.789 150.037 293.524C150.294 293.417 150.594 293.288 150.766 293.224C150.852 293.202 150.873 293.095 150.852 292.945V292.838C150.809 292.688 150.766 292.538 150.744 292.387C150.702 292.023 150.659 291.894 150.637 291.68C150.637 290.736 150.594 291.122 150.809 290.543C150.937 290.221 151.023 289.9 150.959 289.578C150.937 289.407 150.852 289.235 150.744 289.085C150.659 288.935 150.594 288.806 150.466 288.677C149.973 288.206 149.48 287.991 149.051 288.12L149.073 288.141Z" fill="#32E6E2"/>
<path d="M211.873 252.841C211.38 253.056 210.973 253.27 210.566 253.485C206.815 255.543 203.535 257.731 200.149 259.94L190.139 266.631C183.516 271.07 176.872 275.745 170.27 279.82L169.306 280.378C169.049 280.506 169.07 280.849 169.349 281.3C169.456 281.407 169.52 281.536 169.563 281.686V282.136V283.058C169.67 283.745 169.434 284.56 170.249 284.903C170.87 285.267 171.385 285.375 171.771 285.182C172.221 284.946 172.628 284.71 173.014 284.495C180.044 280.163 186.496 275.595 193.161 271.135L203.107 264.465C206.408 262.299 209.794 260.047 213.073 258.267C213.395 258.096 213.738 257.924 213.995 257.817C214.124 257.752 214.145 257.667 214.167 257.495C214.167 257.409 214.124 257.345 214.102 257.238C214.081 257.109 214.038 256.959 214.017 256.809C213.974 256.68 213.952 256.551 213.909 256.423C213.802 255.243 213.802 255.565 213.974 255.093C214.081 254.771 214.188 254.45 214.081 254.107C214.038 253.935 213.867 253.763 213.759 253.635C213.674 253.506 213.566 253.377 213.416 253.27C212.859 252.841 212.302 252.691 211.873 252.884V252.841Z" fill="#32E6E2"/>
<path d="M274.652 198.67C274.159 199.056 273.709 199.399 273.302 199.763C269.358 203.238 265.907 206.819 262.349 210.422L251.868 221.295C244.924 228.522 238.043 235.942 231.056 242.933L229.963 243.963C229.663 244.242 229.706 244.628 229.92 245.099C230.327 245.464 230.392 246.15 230.692 246.686C230.992 247.33 231.227 248.059 232.042 248.123C232.621 248.316 233.199 248.273 233.564 247.952L234.785 246.794C242.009 239.588 248.76 232.275 255.726 225.026L266.143 214.218C269.637 210.679 273.173 207.034 276.753 203.881C277.117 203.559 277.482 203.259 277.803 203.023C277.953 202.916 277.996 202.766 277.996 202.616C277.996 202.53 277.996 202.423 277.932 202.337C277.846 202.165 277.782 201.951 277.674 201.736C277.353 201.286 277.353 200.643 277.289 200.621C277.289 200.557 277.289 200.493 277.289 200.45L277.374 200.257C277.482 199.956 277.589 199.592 277.31 199.27C276.903 198.948 276.774 198.734 276.303 198.627C275.681 198.348 274.995 198.391 274.567 198.713L274.652 198.67Z" fill="#32E6E2"/>
<path d="M336.532 219.3L335.524 218.807C328.901 215.44 322.278 211.859 315.719 208.278C309.225 204.675 302.495 201.05 296.472 197.126C296.193 196.933 295.872 196.718 295.679 196.547C295.572 196.461 295.422 196.461 295.336 196.568C295.122 196.74 294.8 196.976 294.436 197.276H294.414V197.319L294.843 196.954V196.997V197.061V197.212C294.822 197.297 294.779 197.383 294.736 197.469C294.65 197.619 294.5 197.726 294.35 197.791C294.028 197.919 293.686 197.898 293.343 197.898C293 197.898 292.678 197.898 292.4 198.134C292.121 198.327 291.949 198.799 292.057 199.313C291.821 199.807 292.057 200.536 292.357 200.729C292.764 201.072 293.107 201.286 293.471 201.544C300.051 205.811 306.567 209.307 313.19 212.974C319.813 216.577 326.393 220.137 333.145 223.589L334.217 224.126C335.717 224.812 337.539 219.751 336.574 219.279L336.532 219.3Z" fill="#32E6E2"/>
<path d="M390.759 197.533C390.287 197.705 389.923 197.855 389.559 198.027C386.194 199.592 383.343 201.329 380.342 203.066L371.554 208.342C365.767 211.816 359.894 215.547 354.172 218.614C353.871 218.764 353.593 218.893 353.378 219C353.121 219.107 353.378 219.364 353.464 219.879C353.464 220.394 353.507 220.994 353.571 221.616C353.636 222.324 353.679 223.075 354.043 223.525C354.429 223.997 355.136 224.104 355.436 223.975C355.865 223.782 356.229 223.611 356.594 223.439C362.852 220.072 368.468 216.469 374.341 212.953L383.064 207.72C385.958 206.047 388.937 204.267 391.745 202.959C392.002 202.852 392.302 202.723 392.495 202.659C392.581 202.616 392.602 202.53 392.581 202.38V202.273C392.517 202.144 392.495 201.994 392.474 201.844C392.431 201.458 392.366 201.329 392.366 201.115C392.366 200.15 392.302 200.536 392.517 199.978C392.645 199.656 392.731 199.335 392.667 199.013C392.645 198.841 392.559 198.67 392.431 198.52C392.345 198.37 392.281 198.241 392.152 198.112C391.638 197.64 391.166 197.426 390.738 197.576L390.759 197.533Z" fill="#32E6E2"/>
<path d="M300.287 508.776C303.674 510.813 311.861 510.105 317.113 510.105C325.922 510.148 334.753 510.02 343.562 509.934C359.723 509.762 375.82 509.376 391.938 508.776C399.225 508.497 406.513 508.24 413.822 508.24C422.974 508.111 431.762 508.54 440.721 509.162C444.643 509.419 448.544 509.612 452.445 509.784C456.346 509.934 460.247 510.041 463.977 510.341C465.841 510.427 467.792 510.599 469.721 510.792C471.65 510.963 473.558 511.156 475.379 511.414C479.109 511.907 482.131 512.872 485.003 515.038C487.897 517.161 490.297 520.035 491.39 523.187C492.526 526.34 492.226 529.793 490.64 532.688C489.097 535.604 486.354 538.071 483.289 539.872C482.495 540.344 481.788 540.708 481.102 540.944C480.395 541.202 479.602 541.395 478.766 541.523C477.073 541.802 475.144 541.909 473.193 541.995C469.185 542.145 465.22 542.317 461.276 542.467C457.461 542.596 453.581 542.338 449.466 542.338C441.386 542.338 433.455 542.874 425.396 543.282C409.085 544.183 392.945 543.882 376.698 543.539C368.554 543.368 360.516 543.325 352.478 543.389C348.449 543.454 344.441 543.518 340.39 543.561L337.368 543.625H336.617L336.274 543.647C335.953 543.647 336.746 543.625 336.81 543.689C336.532 543.625 335.824 543.625 335.567 543.625H334.753C332.716 543.689 330.68 543.754 328.644 543.797C319.513 544.011 310.661 544.59 302.195 543.046C297.951 542.295 293.686 541.33 290.792 539.057C287.727 536.677 285.434 533.202 284.576 529.407C283.762 526.018 283.869 522.501 285.155 519.713C286.441 516.818 288.734 514.888 292.057 513.279C294.714 511.821 298.637 511.435 302.431 510.92C304.317 510.706 306.246 510.491 308.196 510.255C310.125 510.084 312.054 509.912 313.962 509.676C317.906 509.226 321.078 508.004 319.492 506.288C318.742 505.494 316.448 505.387 314.841 505.237C312.676 505.194 310.49 505.13 308.218 505.044C306.61 505.044 305.003 505.044 303.395 505.151C301.295 505.28 299.194 505.452 297.051 505.73C294.907 506.031 292.657 506.395 290.32 507.425C287.534 508.69 284.512 510.427 282.283 513.129C280.032 515.767 278.746 519.177 278.403 522.522C278.082 525.889 278.596 529.149 279.625 532.216C280.697 535.347 282.454 538.156 284.683 540.537C285.905 541.802 287.213 542.96 288.756 543.947C290.299 544.933 291.928 545.641 293.535 546.177C296.751 547.249 299.923 547.828 303.074 548.322C309.439 549.33 315.848 549.33 322 549.351H331.259L335.61 549.415H335.653C335.653 549.415 335.503 549.415 335.76 549.437H336.082L336.189 549.458H336.36H336.66H337.839H340.154H358.651C383.3 549.415 407.992 549.008 432.984 548.408C439.349 548.408 445.694 548.343 451.931 548.643C455.017 548.794 458.425 548.987 461.705 548.879C465.006 548.794 468.156 548.558 471.371 548.365C474.501 548.107 477.801 548.021 481.36 547.207C481.874 547.078 482.881 546.821 484.189 546.22C485.518 545.577 486.825 544.783 488.368 543.668C491.326 541.48 494.949 537.963 496.642 532.924C497.478 530.436 497.735 527.712 497.392 525.117C497.049 522.522 496.106 520.142 494.949 518.148C492.591 514.159 489.569 511.692 487.597 510.234C485.282 508.518 482.56 507.189 479.816 506.502C477.073 505.773 474.351 505.43 471.393 505.151C469.142 504.937 466.935 504.744 464.577 504.615C462.241 504.487 459.861 504.272 457.461 504.229C451.631 503.993 445.801 503.8 439.992 503.693C433.112 503.543 426.232 503.521 419.309 503.693C414.079 503.822 408.721 503.779 403.491 503.757C389.023 503.607 374.255 503.586 359.487 503.672C352.093 503.736 344.719 503.8 337.346 503.865C333.659 503.907 329.994 503.972 326.329 504.015L320.842 504.101L318.099 504.143H317.413H317.198H316.834C312.354 504.358 305.131 504.122 301.809 505.366C300.437 505.88 299.537 506.61 299.408 507.36C299.323 507.854 299.58 508.325 300.266 508.754L300.287 508.776Z" fill="#32E6E2"/>
<path d="M329.372 566.808L328.451 567.666C325.514 570.454 322.642 573.349 320.049 576.458L316.126 581.112C314.862 582.721 313.683 584.35 312.526 585.916C311.368 587.482 310.211 588.961 308.946 590.377C307.682 591.792 306.31 593.272 305.474 593.551C305.131 593.701 304.724 593.722 303.995 593.636C303.438 593.551 303.18 593.422 302.645 592.993C301.573 592.049 300.394 590.548 299.601 589.09C299.43 588.768 299.258 588.447 299.108 588.125C298.615 587.053 293.557 588.918 294.264 590.462C294.478 590.891 294.693 591.32 294.928 591.728C296.064 593.722 297.308 595.438 299.215 597.132C300.18 597.99 301.766 598.805 303.18 598.976C303.866 599.084 304.488 599.127 305.26 599.084C306.01 599.041 306.846 598.848 307.553 598.548C308.989 597.926 309.953 597.089 310.811 596.296C311.647 595.481 312.268 594.773 312.997 593.98C314.39 592.435 315.676 590.784 316.877 589.176C318.077 587.546 319.213 585.98 320.413 584.458L324.164 580.018C326.629 577.037 329.372 574.271 332.18 571.612L333.059 570.797C334.088 569.853 330.508 565.843 329.415 566.829L329.372 566.808Z" fill="#32E6E2"/>
<path d="M316.855 569.724C316.041 567.644 314.069 568.266 312.804 568.18C310.682 568.051 308.539 568.051 306.417 568.009C302.516 567.944 298.637 568.223 294.65 568.845C292.85 569.167 291.049 569.403 288.949 570.11C287.598 570.561 286.312 571.354 285.262 572.512C284.126 573.799 283.654 575.386 283.333 576.587C282.326 580.855 283.312 584.35 283.633 588.189C284.019 592.049 283.376 595.888 283.161 599.813C283.119 600.821 283.161 601.829 283.269 602.879C283.397 603.93 283.569 605.067 284.126 606.482C284.426 607.19 284.876 607.962 285.433 608.541C285.991 609.142 286.505 609.506 287.191 609.914C287.877 610.321 288.756 610.621 289.442 610.686C290.149 610.793 290.728 610.75 291.306 610.729C293.493 610.557 295.379 610.493 297.372 610.621C299.323 610.75 301.273 611.029 303.223 611.308C307.146 611.865 310.94 611.93 314.948 611.436C316.555 611.222 318.141 611.093 319.878 610.836C320.756 610.686 321.699 610.514 322.728 610.085C323.778 609.656 324.872 608.906 325.686 607.79C326.008 607.362 326.265 606.868 326.436 606.332C326.629 605.775 326.715 605.281 326.801 604.96C326.929 604.295 327.058 603.609 327.186 602.879C327.894 598.891 328.022 594.966 326.2 591.191C325.729 590.226 324.507 589.519 322.793 589.948C321.999 590.141 321.892 590.698 321.742 591.084C321.721 591.599 321.657 592.114 321.571 592.65C321.506 593.036 321.485 593.4 321.506 593.786L321.614 596.724L321.678 600.864C321.678 602.193 321.635 603.673 321.485 604.638C321.485 604.767 321.442 604.874 321.356 604.96C321.206 605.238 320.585 605.56 319.363 605.71C318.206 605.86 316.812 605.882 315.419 605.86C312.633 605.817 309.761 605.667 306.889 605.56C304.017 605.453 301.144 605.389 298.251 605.389C296.836 605.389 295.422 605.389 293.986 605.41C293.3 605.41 292.592 605.41 291.992 605.41C291.392 605.41 290.813 605.346 290.663 605.303C290.599 605.26 290.599 605.26 290.535 605.217C290.449 605.153 290.299 605.003 290.213 604.895C290.085 604.724 290.063 604.702 289.935 604.23C289.72 603.265 289.592 601.7 289.42 600.22C289.334 599.491 289.292 598.719 289.334 597.968C289.399 597.089 288.927 590.033 288.927 587.867C288.927 586.581 289.013 585.423 288.82 584.029C288.691 582.956 288.563 581.884 288.541 580.726C288.541 579.353 288.541 577.938 288.713 576.78C288.927 575.257 289.163 575.107 289.935 574.549C290.342 574.292 291.199 574.035 292.292 573.992C295.357 573.885 299.001 574.078 302.516 574.099C304.295 574.121 306.074 574.142 307.853 574.163H310.511L311.84 574.142H312.504H312.676H312.719H312.804C313.876 573.992 315.612 574.314 316.427 573.113C316.748 572.619 316.984 571.89 317.027 571.14C317.048 570.646 316.984 570.153 316.834 569.746L316.855 569.724Z" fill="#32E6E2"/>
<path d="M550.997 587.245C549.175 587.76 547.161 589.411 544.889 591.127C542.66 592.843 540.195 594.623 538.094 595.652C534.579 597.346 530.828 598.526 526.992 598.697C523.176 598.912 519.254 598.29 515.503 597.025C512.074 595.91 508.794 594.237 506.072 592.135C504.765 591.063 503.586 589.84 502.921 588.618C502.278 587.331 502.128 586.495 502.621 585.23C503.607 582.72 506.887 580.34 509.03 580.876C511.388 581.284 513.981 584.651 513.874 587.31C513.853 589.626 511.323 592.006 508.473 593.551C505.579 595.159 502.343 596.317 499.042 597.175C490.704 599.341 482.259 599.169 474.093 597.647C470.514 596.982 466.977 596.167 463.612 595.095C460.29 593.979 456.989 592.65 454.46 590.805C453.238 589.883 452.188 588.854 451.695 587.889C451.545 587.396 451.309 586.988 451.309 586.495C451.266 586.002 451.395 585.444 451.609 584.844C452.466 582.42 455.124 579.911 457.739 579.246C460.547 578.517 464.019 579.375 466.527 581.219C467.792 582.141 468.777 583.321 469.335 584.565C469.913 585.787 469.956 587.052 469.613 588.425C468.906 591.149 466.591 594.001 463.955 596.124C461.404 598.204 458.318 599.641 454.953 600.37C448.115 601.893 440.721 601.271 433.476 600.049C426.274 598.698 418.965 596.703 412.685 592.907C409.556 590.977 406.791 588.468 405.291 585.358C404.798 584.629 404.691 583.771 404.433 582.956C404.133 582.163 404.09 581.284 404.026 580.426C403.962 578.689 404.219 576.93 404.755 575.343C405.291 573.756 406.212 572.384 407.284 571.762C408.27 571.204 409.727 571.204 411.228 571.697C414.229 572.662 417.122 575.193 418.387 577.874C419.03 579.246 419.18 580.426 418.815 581.734C418.472 583.021 417.701 584.372 416.693 585.68C414.571 588.253 411.699 590.527 408.634 592.5C405.569 594.494 402.311 596.253 398.903 597.711C395.41 599.212 391.98 600.585 388.465 601.314C384.564 602.129 380.599 602.15 377.341 600.563C374.04 599.084 371.49 596.06 369.861 592.564C368.253 589.09 367.439 584.994 367.953 581.412C368.167 579.675 368.939 578.002 369.603 577.831C370.289 577.402 372.176 577.402 373.826 577.895C374.983 578.217 376.141 578.731 377.062 579.353C377.534 579.654 377.898 579.997 378.156 580.276C378.263 580.426 378.22 580.404 378.22 580.49C378.177 580.597 378.22 580.49 378.091 580.705C377.877 581.026 377.555 581.455 377.105 581.884C376.269 582.72 375.198 583.557 374.04 584.307C371.747 585.809 369.175 587.052 366.538 588.017C361.351 589.862 355.522 590.848 351.728 587.889C349.306 585.98 347.548 582.978 346.326 585.101C345.791 586.087 346.669 588.554 347.784 590.119C349.327 592.178 351.685 593.786 354.193 594.558C355.972 595.138 357.772 595.331 359.508 595.309C364.031 595.202 368.167 593.958 372.047 592.221C374.469 591.127 376.784 589.798 378.97 588.125C380.063 587.267 381.113 586.345 382.099 585.144C382.614 584.543 383.021 583.921 383.493 582.999C383.943 581.991 384.157 580.898 384.071 579.825C383.857 578.517 383.128 577.166 382.271 576.287C381.499 575.536 380.706 574.914 379.892 574.442C378.263 573.477 376.569 572.834 374.769 572.448C372.969 572.083 371.082 571.89 368.96 572.384C368.446 572.512 367.889 572.727 367.353 572.963C366.839 573.284 366.238 573.542 365.831 573.992C364.867 574.828 364.288 575.772 363.838 576.716C362.295 580.361 362.466 583.771 362.895 587.052C363.409 590.312 364.438 593.465 366.024 596.381C367.61 599.277 369.818 601.979 372.711 603.93C375.583 605.903 379.034 606.976 382.378 607.233C389.13 607.662 395.303 605.56 400.875 603.33C406.62 601.014 412.064 598.011 416.972 593.958C419.394 591.878 421.773 589.519 423.445 586.237C423.895 585.465 424.174 584.5 424.474 583.6C424.667 582.635 424.903 581.627 424.86 580.597C424.903 578.474 424.195 576.48 423.295 574.828C421.409 571.526 418.708 569.188 415.493 567.558C413.864 566.765 412.107 566.143 410.049 565.971C409.513 565.971 408.999 565.928 408.463 565.971C407.906 566.057 407.348 566.1 406.791 566.25C405.676 566.572 404.498 567.086 403.619 567.837C401.797 569.295 400.811 571.097 400.082 572.834C399.396 574.592 399.053 576.351 398.903 578.11C398.56 581.584 399.311 585.465 401.154 588.575C402.933 591.685 405.355 594.28 408.034 596.188C410.692 598.161 413.521 599.748 416.436 601.014C422.33 603.737 428.418 605.517 434.762 606.675C440.956 607.748 447.558 608.262 454.117 606.976C457.289 606.354 460.611 605.26 463.569 603.651C464.448 603.244 466.848 601.721 469.399 599.191C470.642 597.904 471.993 596.338 473.129 594.344C474.265 592.392 475.272 589.926 475.293 587.117C475.293 585.723 475.015 584.286 474.5 582.956C473.943 581.67 473.257 580.469 472.378 579.503C470.685 577.488 468.606 576.115 466.527 575.193C462.347 573.306 458.082 573.456 455.531 574.314C452.466 575.279 450.13 577.059 448.244 579.353C447.322 580.533 446.486 581.884 445.972 583.514C445.5 585.101 445.243 587.16 445.972 589.025C446.915 591.878 448.887 593.851 450.859 595.288C452.874 596.724 454.996 597.904 457.268 598.826C462.733 601.164 468.413 602.408 474.136 603.137C480.888 603.995 487.853 603.887 494.605 602.686C499.792 601.743 504.936 600.37 509.909 598.011C511.624 597.196 513.338 596.167 514.946 594.794C516.532 593.465 518.182 591.449 518.718 588.768C519.297 586.066 518.568 583.621 517.539 581.605C516.468 579.568 514.924 577.766 512.738 576.48C511.645 575.858 510.316 575.364 508.901 575.257C507.487 575.129 506.158 575.364 504.979 575.75C502.6 576.565 500.714 577.959 499.192 579.718C497.713 581.477 496.406 583.707 496.32 586.666C496.32 589.647 497.649 591.964 499.02 593.658C501.85 597.068 505.215 599.212 508.709 600.906C512.224 602.579 515.91 603.78 519.747 604.402C523.584 605.024 527.635 604.981 531.493 604.23C533.422 603.844 535.286 603.287 537.087 602.579C537.987 602.215 538.887 601.871 539.745 601.421L540.388 601.099L540.581 600.992L540.923 600.799C542.981 599.641 545.575 598.054 547.761 596.167C549.947 594.323 551.726 592.242 552.433 590.57C553.012 589.218 553.012 588.039 552.519 587.481C552.198 587.117 551.662 586.988 550.933 587.203L550.997 587.245Z" fill="#32E6E2"/>
<path d="M306.267 529.856H307.21C319.256 529.277 331.516 529.685 343.712 529.771H344.676C345.791 529.792 345.726 524.409 344.612 524.409H343.647C331.451 524.323 319.32 523.895 306.974 524.452H306.031C304.916 524.516 305.195 529.878 306.267 529.856Z" fill="#32E6E2"/>
<path d="M366.324 529.857L367.975 529.814C378.563 529.364 389.344 529.621 400.061 529.642L432.255 529.814H433.948C435.898 529.814 435.834 524.453 433.884 524.431H432.19L400.018 524.26C389.28 524.26 378.606 523.981 367.76 524.453L366.089 524.495C364.117 524.56 364.395 529.921 366.324 529.878V529.857Z" fill="#32E6E2"/>
<path d="M455.253 529.878H455.767L465.863 529.578C467.556 529.535 469.249 529.47 470.814 529.535C472.336 529.599 474.157 529.792 475.979 529.792H476.558C477.222 529.792 477.115 524.409 476.558 524.409H476.044C474.479 524.409 472.914 524.216 471.05 524.152C469.228 524.066 467.513 524.152 465.798 524.195L455.532 524.474H454.996C454.374 524.495 454.631 529.878 455.253 529.856V529.878Z" fill="#32E6E2"/>
<path d="M308.003 476.542C314.669 478.344 330.551 477.036 340.754 476.671L353.571 476.199L359.98 475.942L366.41 475.813C374.962 475.663 383.514 475.599 392.045 475.727C407.713 476.006 423.488 476.349 439.199 476.028L450.966 475.813L462.712 475.706C470.535 475.62 478.38 475.534 486.225 475.427C493.319 475.341 500.414 475.256 507.487 475.191C514.582 475.191 521.719 474.977 528.749 475.384C533.143 475.577 537.516 475.706 541.867 476.178C546.239 476.607 550.462 476.993 554.213 478.494C558.049 479.931 561.564 482.118 564.608 484.842C567.652 487.544 570.331 490.761 572.003 494.235C575.003 500.304 574.789 507.81 574.875 515.359C574.875 522.951 574.832 530.521 574.682 538.07C574.532 545.619 574.21 553.233 574.189 560.953C574.253 568.609 574.339 576.287 574.403 584.007C574.446 591.856 574.468 599.684 574.51 607.533C574.532 611.393 574.403 615.146 573.717 618.706C573.031 622.266 571.788 625.612 569.816 628.507C565.915 634.298 559.485 638.587 552.691 640.41C549.24 641.353 545.596 641.718 541.781 641.911C537.944 642.104 534.043 642.232 530.164 642.297C514.496 642.683 498.978 641.911 483.374 642.64C475.658 642.919 467.92 643.09 460.183 643.24C452.424 643.412 444.665 643.562 436.82 643.734C420.959 644.055 405.184 644.055 389.408 643.905C373.676 643.348 357.794 643.005 341.976 643.047C334.045 643.069 326.2 643.09 318.356 643.112C310.554 643.069 302.816 642.876 295.379 641.761C291.628 641.267 288.027 640.324 284.49 639.23C281.018 637.965 277.567 636.528 274.395 634.641C271.244 632.775 268.351 630.566 266.464 627.842C264.514 625.054 263.335 621.687 262.735 618.063C262.071 614.01 262.07 609.699 262.006 605.26C261.899 600.864 261.813 596.489 261.706 592.114C261.556 583.385 261.299 574.678 261.32 565.993C261.32 548.622 261.449 531.272 261.706 513.622C261.792 509.762 261.749 505.837 261.963 502.02C262.156 498.224 262.413 494.493 263.614 491.619C264.75 488.788 267.15 486.343 269.98 484.413C272.83 482.483 276.174 481.067 279.668 479.995C280.546 479.716 281.425 479.459 282.347 479.223C282.861 479.073 283.204 479.03 283.526 478.966C283.826 478.901 284.254 478.837 284.726 478.794C286.505 478.58 288.434 478.473 290.32 478.344L301.787 477.722C309.439 477.336 317.048 476.95 324.593 476.478C332.33 475.985 338.439 474.784 335.288 473.068C333.809 472.253 329.394 472.167 326.265 472.017C322.106 471.996 317.884 471.953 313.49 471.91C310.404 471.889 307.317 471.91 304.231 471.953C300.223 472.039 296.193 472.146 292.163 472.296C290.149 472.382 288.113 472.489 286.076 472.639C285.026 472.725 284.04 472.811 282.883 472.961C282.304 473.068 281.575 473.175 281.104 473.304L279.625 473.712C273.988 475.299 268.243 477.615 263.528 481.861C261.235 483.984 259.134 486.643 257.998 489.774C256.841 492.884 256.583 495.951 256.369 498.867C256.026 504.679 256.198 510.255 256.198 515.938L256.241 532.923V569.36C256.369 581.434 256.498 593.486 256.626 605.517C256.648 611.458 256.433 617.849 258.427 624.24C259.456 627.392 260.977 630.48 263.228 633.097C265.457 635.692 268.093 637.665 270.794 639.359C276.195 642.661 282.111 645.085 288.22 646.543C294.328 648.001 300.501 648.645 306.588 648.924C318.784 649.417 330.766 648.988 342.747 648.838C354.729 648.645 366.732 648.623 378.67 648.838L387.737 649.052H396.803H414.957C427.068 649.009 439.242 648.967 451.438 648.924C463.869 648.967 476.301 649.009 488.754 648.709C500.993 648.516 513.51 649.009 526.006 648.623C532.114 648.43 538.416 648.216 544.632 647.787C545.553 647.701 547.29 647.573 549.669 647.165C552.048 646.758 555.07 646.071 558.392 644.677C561.693 643.326 565.208 641.246 568.466 638.437C571.703 635.649 574.746 631.939 576.675 627.585C578.647 623.253 579.526 618.513 579.762 614.031C580.04 609.528 579.783 605.303 579.826 601.378C579.826 593.508 579.826 586.709 579.826 582.377C579.912 572.083 579.805 562.862 580.126 551.538C580.362 542.874 580.598 534.06 580.64 524.688C580.64 519.005 580.748 513.386 580.512 507.574C580.362 504.679 580.105 501.72 579.462 498.739C578.797 495.779 577.704 492.777 576.075 490.139C574.189 486.987 571.81 484.306 569.195 481.904C566.558 479.502 563.622 477.465 560.428 475.813C557.235 474.226 553.763 472.982 550.205 472.403C546.689 471.846 543.346 471.631 540.002 471.353C534.858 470.967 529.585 470.881 524.398 470.645C519.19 470.473 514.089 470.559 508.987 470.452C494.884 470.323 480.652 470.194 466.356 470.066C452.038 469.873 437.677 470.173 423.338 470.023C409.02 469.937 394.617 469.337 380.17 469.422C372.969 469.465 365.788 469.594 358.651 469.808C355.072 469.959 351.514 470.13 347.956 470.28L342.619 470.516L341.29 470.58H340.861L340.132 470.645C331.387 471.16 317.305 471.438 310.875 472.94C308.239 473.54 306.503 474.355 306.288 475.106C306.16 475.599 306.674 476.071 308.046 476.435L308.003 476.542Z" fill="#32E6E2"/>
<path d="M840.804 191.507C842.69 190.092 841.532 187.475 841.168 185.781C840.632 182.929 839.689 179.991 838.832 177.353C838.06 174.886 837.203 172.377 836.345 169.997C835.467 167.616 835.102 165.772 835.252 163.37C835.317 162.426 835.552 161.461 835.981 160.625C836.367 159.81 837.181 159.017 838.017 157.837C839.025 156.4 839.775 154.835 840.246 153.183C840.718 151.446 840.975 150.031 841.018 148.144C841.018 144.948 839.56 141.796 837.31 139.565C835.059 137.292 832.059 135.919 828.972 135.426C828.179 135.34 827.386 135.212 826.593 135.212C825.693 135.169 825.286 135.19 824.45 135.212C822.864 135.212 821.277 135.469 819.756 135.941C816.691 136.842 813.883 138.772 811.889 141.41C809.896 144.069 809.103 147.672 809.489 150.653C809.553 151.232 809.639 152.111 809.789 152.862C809.96 153.634 810.175 154.406 810.453 155.135C811.032 156.593 811.825 157.944 812.79 159.124C813.283 159.724 813.776 160.303 814.333 160.818C814.954 161.419 815.276 161.676 815.555 162.062C816.112 162.834 816.391 163.799 816.326 164.721C816.326 164.936 816.262 165.236 816.219 165.343C816.219 165.407 816.176 165.472 816.133 165.536L815.94 165.965C815.683 166.566 815.426 167.166 815.147 167.766C814.612 168.946 814.054 170.147 813.518 171.369C812.425 173.771 811.461 176.195 810.625 178.661C810.218 179.883 809.81 181.127 809.467 182.393C809.296 183.014 809.125 183.636 808.953 184.28C808.782 184.945 808.61 185.631 808.439 186.339C807.817 188.976 809.082 191.743 811.246 193.03C811.782 193.373 812.382 193.587 812.983 193.759C813.283 193.823 813.604 193.887 813.904 193.909C814.204 193.909 814.569 193.93 814.697 193.93H816.862C819.734 193.93 822.628 194.102 825.543 194.381C828.115 194.638 830.708 194.81 833.28 194.702C833.923 194.681 834.566 194.638 835.209 194.574C835.51 194.531 835.831 194.509 836.174 194.466C836.645 194.445 837.353 194.316 837.824 194.123C840.032 193.416 841.575 191.25 841.532 189.234C841.532 188.183 841.018 187.389 840.375 187.111C839.71 186.789 839.003 187.046 838.232 187.411C837.503 187.711 837.417 188.054 837.224 188.14C837.16 188.312 837.01 188.462 836.838 188.483C836.731 188.505 836.624 188.526 836.538 188.569C836.667 188.698 834.781 188.655 833.559 188.698C829.808 188.762 826.079 188.869 822.328 188.869C820.313 188.869 818.32 188.848 816.305 188.826H814.804C814.483 188.826 814.44 188.783 814.397 188.783C814.333 188.783 814.29 188.762 814.226 188.719C814.033 188.633 813.861 188.44 813.797 188.226C813.776 188.119 813.776 188.033 813.797 187.926C813.797 187.883 813.819 187.84 813.84 187.775L814.054 187.153L815.062 184.344L817.076 178.725C818.427 174.994 819.756 171.241 821.042 167.445C821.042 167.295 821.342 166.737 821.363 166.265C821.449 165.729 821.47 165.429 821.47 165.043C821.47 164.292 821.428 163.542 821.277 162.812C820.977 161.354 820.334 159.939 819.413 158.781C819.177 158.48 818.941 158.202 818.663 157.944L818.191 157.473C817.934 157.194 817.677 156.915 817.462 156.615C817.012 156.014 816.626 155.371 816.305 154.685C816.026 153.977 815.855 153.226 815.748 152.476C815.683 152.09 815.683 151.725 815.662 151.339C815.662 150.867 815.64 150.245 815.662 149.924C815.683 148.401 816.026 146.857 816.733 145.441C817.034 144.734 817.569 144.09 818.127 143.554C818.47 143.254 819.927 141.753 822.071 141.045C822.606 140.873 823.142 140.723 823.699 140.638C824.278 140.573 824.728 140.53 825.457 140.509C826.657 140.487 827.429 140.573 828.008 140.745C829.315 141.109 830.365 141.667 831.651 142.418C832.616 143.018 833.538 143.812 834.202 144.862C834.995 146.149 835.467 147.607 835.595 149.087C835.617 149.538 835.595 149.924 835.595 150.438V151.253L835.509 151.875C835.402 152.733 835.167 153.548 834.845 154.256C834.566 154.835 834.309 155.285 833.88 155.778C833.495 156.272 832.766 157.001 832.102 157.944C831.18 159.253 830.58 160.646 830.215 162.169C830.044 162.92 829.937 163.67 829.872 164.335C829.808 164.914 829.744 165.729 829.765 166.458C829.851 169.589 830.751 172.034 831.394 174.265C832.102 176.559 832.809 178.832 833.516 181.106C833.881 182.199 834.223 183.272 834.545 184.366L835.016 185.995L835.231 186.81L835.274 187.025V187.089L835.338 187.196C835.81 188.526 835.96 190.756 837.31 191.593C837.867 191.936 838.639 192.107 839.389 192.043C839.882 192 840.353 191.829 840.718 191.55L840.804 191.507Z" fill="#32E6E2"/>
<path d="M795.728 114.088C798.364 116.232 804.988 115.761 809.189 115.932C816.262 116.189 823.378 116.318 830.472 116.468C836.967 116.554 843.483 116.876 849.956 116.34C853.171 116.168 856.343 115.889 859.108 116.34C860.501 116.554 861.83 116.962 863.159 117.562C864.573 118.184 865.859 118.87 867.081 119.707C869.289 121.186 871.154 123.116 872.204 125.433C872.461 126.033 872.697 126.569 872.783 127.127C872.89 127.706 872.933 128.435 872.997 129.121C873.083 130.558 873.125 132.016 873.168 133.496C873.254 137.142 873.211 140.831 873.168 144.369C873.018 147.951 872.718 151.532 872.525 155.135C872.118 161.462 872.225 167.681 872.247 173.943C872.247 175.487 872.268 177.053 872.29 178.597C872.29 180.205 872.268 181.449 872.182 183.186C872.097 186.489 872.182 189.598 872.182 192.794C872.182 199.185 872.504 206.026 868.517 208.771C867.574 209.5 866.481 209.993 865.152 210.401C863.823 210.808 862.259 211.13 860.758 211.43C857.736 212.009 854.671 212.395 851.606 212.588C848.477 212.803 845.39 212.889 842.282 212.867C839.196 212.824 835.831 212.76 832.594 212.91C829.293 213.06 826.078 213.425 822.928 213.725C819.777 214.025 816.626 214.24 813.411 214.411C810.153 214.561 806.917 214.582 803.659 214.518C800.422 214.454 797.186 214.347 794.099 213.896C791.034 213.446 788.205 212.545 785.912 210.894C783.575 209.221 781.753 206.948 780.467 204.353C779.803 203.045 779.267 201.651 778.731 200.171C778.238 198.799 777.874 197.448 777.681 196.054C777.274 193.266 777.317 190.07 777.295 186.896C777.317 180.462 777.167 173.964 776.995 167.466C776.866 163.842 776.931 160.239 776.759 156.508C776.566 152.883 776.395 149.302 776.202 145.699C776.031 142.16 776.095 138.772 776.416 135.233C776.759 131.695 777.016 127.985 777.831 124.961C778.217 123.631 778.667 122.645 779.396 121.851C780.21 120.972 781.11 120.114 782.268 119.492C784.497 118.162 787.219 117.283 790.091 116.769C792.963 116.232 795.964 115.954 798.922 115.868H800.036L800.101 115.846H800.551C800.808 115.846 801.108 115.782 801.451 115.632C802.158 115.396 802.887 114.602 803.08 113.959C803.208 113.637 803.251 113.359 803.251 113.144V112.844C803.294 112.672 803.016 111.364 802.03 110.764C801.129 110.12 800.015 110.335 800.336 110.292H800.315H800.251H800.165L800.015 110.335L799.415 110.421C798.643 110.549 797.872 110.699 797.078 110.828C795.514 111.107 793.971 111.429 792.449 111.772C789.298 112.479 786.897 113.895 788.333 115.503C788.998 116.254 790.82 116.211 792.106 116.254C793.821 116.147 795.557 116.082 797.357 116.018C798 115.996 798.622 115.954 799.265 115.932L800.208 115.868H800.636V115.846C800.636 115.846 800.636 116.039 800.636 115.568C800.594 115.267 800.636 114.838 800.551 114.645C800.401 114.517 800.272 114.345 800.165 114.174C799.929 113.809 799.951 113.337 800.208 113.166C800.272 113.123 800.336 113.08 800.401 113.058H800.508C799.265 113.144 803.337 112.78 797.764 113.294V113.166V112.908C797.764 112.715 797.764 112.501 797.829 112.243C797.936 111.729 798.322 111.085 798.879 110.721C799.415 110.335 799.929 110.249 800.272 110.228H800.572H800.508H800.379C796.864 110.013 793.392 110.142 789.898 110.699C785.054 111.493 779.803 113.101 775.88 117.24C775.43 117.798 774.937 118.248 774.53 118.892C774.101 119.514 773.759 120.178 773.437 120.843C772.858 122.173 772.537 123.502 772.301 124.768C771.851 127.298 771.701 129.657 771.508 132.016C771.337 134.526 771.144 137.056 771.101 139.651C771.036 142.246 771.144 144.82 771.272 147.307C771.508 152.304 771.765 157.172 771.594 162.041C771.487 167.016 771.422 171.991 771.379 176.945C771.379 181.899 771.208 186.768 771.315 191.893C771.401 194.445 771.615 197.233 772.451 199.978C772.837 201.329 773.373 202.637 773.844 203.795C774.359 205.018 774.937 206.262 775.623 207.463C776.995 209.886 778.817 212.181 781.067 214.025C783.275 215.89 786.019 217.306 788.762 218.078C794.314 219.579 799.415 219.429 804.409 219.6C809.424 219.708 814.483 219.729 819.584 219.558C824.835 219.493 829.872 219.043 834.823 219.129C839.732 219.193 845.133 219.536 850.406 218.978C852.978 218.743 855.678 218.421 858.229 218.035C858.979 217.906 861.058 217.563 863.802 216.855C865.152 216.512 866.738 216.083 868.539 215.333C870.318 214.582 872.225 213.317 873.661 211.623C875.162 209.972 876.169 207.806 876.662 205.811C877.176 203.795 877.348 201.908 877.455 200.214C877.627 196.826 877.584 194.038 877.648 192.258C877.712 190.156 877.777 188.14 877.841 186.103C877.884 185.095 877.927 184.087 877.969 183.036C878.034 182.028 878.119 180.72 878.098 179.562C878.077 175.937 878.055 172.313 878.034 168.453V154.427L878.098 146.149C878.098 144.82 878.055 143.297 877.991 141.967L877.862 137.871L877.691 131.502L877.584 128.242C877.541 127.663 877.519 127.084 877.412 126.376C877.305 125.668 877.091 124.896 876.876 124.317C875.719 120.908 873.383 118.098 870.789 116.018C869.482 114.967 868.088 114.066 866.652 113.273C865.302 112.544 863.673 111.75 861.98 111.278C858.508 110.27 855.185 110.356 852.206 110.399L843.332 110.656C837.438 110.506 831.522 110.378 825.65 110.228C822.713 110.185 819.777 110.12 816.862 110.077L812.489 110.013H810.303L809.767 109.97H809.596H809.296C805.695 110.035 799.929 109.584 797.207 110.721C796.093 111.193 795.342 111.9 795.214 112.629C795.128 113.123 795.321 113.616 795.857 114.045L795.728 114.088Z" fill="#32E6E2"/>
<path d="M1049.29 498.16C1053.15 500.347 1062.96 500.24 1069.24 500.39C1079.79 500.433 1090.14 499.468 1099.98 501.055C1104.46 501.784 1108.79 503.05 1112.65 505.194C1116.51 507.317 1119.87 510.17 1122.38 513.794C1124.91 517.397 1126.71 521.579 1127.93 525.975C1129.17 530.329 1129.69 535.047 1130.42 539.722C1131.57 548.172 1132.17 556.75 1132.28 565.35C1132.41 576.094 1131.49 586.538 1130.67 597.132C1129.19 615.704 1129.09 634.169 1129.92 652.891C1130.2 662.263 1129.64 671.678 1126.86 680.256C1125.47 684.524 1123.47 688.513 1120.77 691.858C1118.09 695.225 1114.71 697.906 1110.87 699.836C1103.07 703.761 1093.94 704.64 1084.74 704.983C1080.07 705.09 1075.37 705.198 1070.68 705.305C1065.88 705.455 1061.19 705.841 1056.43 706.098C1037.2 707.235 1018.1 706.913 999.049 705.562C989.275 704.79 979.651 705.369 970.37 705.155C961.111 704.962 951.809 704.04 943.985 699.9C939.677 697.563 936.226 693.981 933.847 689.714C931.275 685.532 929.925 680.556 929.089 675.581C928.274 670.563 928.103 665.416 928.189 660.161C928.317 654.886 928.446 649.567 928.596 644.184C928.896 634.77 929.11 625.291 929.068 615.854C929.068 606.418 928.853 597.047 928.082 587.868C927.696 583.15 926.538 579.439 924.781 581.327C923.966 582.206 923.838 584.887 923.645 586.774C923.58 589.305 923.473 591.857 923.345 594.516C923.259 596.382 923.195 598.247 923.173 600.135L923.045 614.739V655.979C922.959 663.314 923.023 670.949 924.481 678.476C925.209 682.229 926.303 685.982 927.889 689.542C928.746 691.301 929.753 693.016 930.718 694.753L932.54 697.113C933.161 697.885 933.719 698.742 934.49 699.386C940.127 705.155 947.758 708.414 955.217 709.787C962.74 711.202 970.22 711.353 977.551 711.31C984.945 711.245 992.04 710.988 999.22 711.395C1006.55 711.739 1013.88 711.889 1021.23 711.932C1035.91 712.017 1050.64 711.631 1065.45 711.074C1072.8 710.902 1080.35 711.353 1088.08 711.117C1095.76 710.838 1103.82 710.001 1111.28 706.592C1114.88 704.962 1118.43 702.71 1121.46 700.051C1121.89 699.643 1122.66 698.85 1123.71 697.756C1124.26 697.241 1124.74 696.533 1125.32 695.804C1125.89 695.075 1126.54 694.282 1127.07 693.338C1129.47 689.714 1131.62 684.717 1132.95 679.398C1135.67 668.718 1135.35 657.159 1135.32 651.862C1135.28 645.643 1135.24 640.067 1135.2 633.14C1135.15 627.886 1135.2 622.588 1135.39 616.927C1135.67 610.064 1135.92 603.201 1136.2 596.339C1136.55 588.232 1136.8 580.104 1136.85 571.933C1136.91 565.65 1136.7 559.302 1136.5 553.061C1136.29 548.751 1136.05 544.397 1135.62 540.044C1135.47 537.856 1135.15 535.69 1134.9 533.503C1134.66 531.358 1134.36 529.085 1133.89 526.833C1132.97 522.329 1131.49 517.869 1129.24 513.665C1126.99 509.505 1123.86 505.537 1119.91 502.685C1116.08 499.747 1111.64 497.667 1107.14 496.359C1102.62 495.05 1098.01 494.45 1093.51 494.171C1088.98 493.914 1084.55 493.978 1080.2 494.107C1078.03 494.171 1075.87 494.257 1073.72 494.321L1070.53 494.407H1069.74H1069.48H1069.05C1063.84 494.514 1055.42 493.764 1051.43 494.836C1049.8 495.265 1048.67 495.951 1048.45 496.68C1048.32 497.152 1048.58 497.667 1049.38 498.117L1049.29 498.16Z" fill="#32E6E2"/>
<path d="M713.637 454.625V429.919C713.637 429.212 708.257 429.212 708.257 429.919V454.625C708.257 455.333 713.637 455.333 713.637 454.625Z" fill="#32E6E2"/>
<path d="M745.53 454.625V429.919C745.53 429.212 740.15 429.212 740.15 429.919V454.625C740.15 455.333 745.53 455.333 745.53 454.625Z" fill="#32E6E2"/>
<path d="M707.721 471.138H746.066C747.159 471.138 747.159 465.755 746.066 465.755H707.721C706.628 465.755 706.628 471.138 707.721 471.138Z" fill="#32E6E2"/>
<path d="M746.388 454.603C748.252 456.705 753.139 456.147 756.14 456.255L759.891 456.362C761.134 456.383 762.463 456.383 763.47 456.469C763.985 456.512 764.199 456.576 764.285 456.641C764.456 456.726 764.671 456.898 764.842 457.134C765.013 457.327 765.271 457.799 765.335 457.992C765.356 458.056 765.378 458.12 765.378 458.185V458.978L765.399 462.474C765.399 463.954 765.442 464.039 765.228 464.468C765.035 464.833 764.649 465.133 764.242 465.219C764.113 465.24 764.092 465.262 763.856 465.262H762.977L761.241 465.326L757.555 465.433C756.547 465.433 755.604 465.498 754.79 465.905C753.975 466.291 753.268 466.977 752.861 467.792C752.432 468.607 752.346 469.508 752.389 470.495L752.453 472.553C752.496 473.711 752.56 474.87 752.603 476.028C752.818 480.231 753.011 484.434 752.946 488.638C752.925 493.613 750.653 498.095 747.545 501.419C746.173 502.878 744.694 504.186 743.108 505.323C742.722 505.623 742.315 505.88 741.908 506.137L741.179 506.631C740.9 506.824 740.622 506.995 740.343 507.21C739.25 508.003 738.264 508.925 737.385 509.976C735.628 512.035 734.299 514.501 733.634 517.161C733.313 518.49 733.12 519.863 733.12 521.214V521.964V522.007V522.157C733.12 522.265 733.077 522.372 733.013 522.458C732.949 522.543 732.863 522.629 732.734 522.651C732.67 522.651 732.627 522.672 732.563 522.672H731.813H728.34C727.183 522.672 726.025 522.629 724.868 522.608L723.132 522.565C722.639 522.565 721.717 522.522 721.846 522.501C721.674 522.458 721.546 522.286 721.546 522.136C721.546 522.093 721.546 522.05 721.546 522.029V522.007C715.48 522.694 719.938 522.179 718.609 522.329H718.717L719.574 522.222L721.289 522.007C721.696 521.943 721.524 522.007 721.567 522.007V521.621C721.567 520.914 721.503 520.206 721.417 519.498C721.053 516.689 719.938 513.965 718.266 511.67C717.409 510.512 716.423 509.462 715.33 508.561C714.794 508.11 714.215 507.703 713.615 507.317L712.029 506.395C710.315 505.408 708.707 504.229 707.25 502.856C704.377 500.09 702.148 496.465 701.184 492.326C700.927 491.276 700.798 490.203 700.734 489.131C700.691 487.994 700.669 486.793 700.648 485.635C700.627 483.298 700.648 480.96 700.734 478.623C700.798 476.285 700.927 473.947 701.055 471.61L701.098 470.344C701.098 469.851 701.098 469.358 701.012 468.908C700.862 468.007 700.391 467.128 699.705 466.506C698.998 465.862 698.14 465.476 697.176 465.348C696.683 465.283 696.168 465.283 695.654 465.262L694.668 465.197C693.489 465.133 692.31 465.069 691.153 465.004L690.274 464.962H689.845C689.695 464.94 689.717 464.919 689.652 464.919C689.481 464.876 689.331 464.811 689.202 464.726C688.945 464.533 688.774 464.232 688.731 463.954C688.731 463.889 688.731 463.804 688.731 463.739V462.924L688.752 461.187V457.713C688.752 457.348 688.838 457.112 689.052 456.855C689.159 456.748 689.288 456.641 689.438 456.576C689.502 456.533 689.588 456.512 689.674 456.49H689.802L690.231 456.448C691.389 456.405 692.567 456.362 693.746 456.297C704.206 455.804 714.323 455.869 724.761 456.426C733.956 456.919 743.258 457.155 752.196 455.397C754.49 454.946 756.29 453.724 755.368 452.008C754.94 451.215 753.632 451.108 752.711 450.957C751.489 450.915 750.224 450.85 748.938 450.764C748.038 450.7 747.116 450.679 746.195 450.679L739.079 450.743C732.391 450.807 725.704 450.872 719.017 450.915C711.815 450.915 704.677 450.85 697.561 450.764L692.224 450.7H690.896L690.231 450.679C689.995 450.679 689.845 450.679 689.395 450.679C687.916 450.743 686.437 451.322 685.28 452.266C684.123 453.231 683.287 454.56 682.922 456.019C682.836 456.383 682.772 456.769 682.751 457.134V457.67L682.729 458.013V459.343L682.665 462.002V463.332L682.644 463.675V464.232C682.686 464.618 682.729 465.004 682.815 465.369C683.458 468.414 686.244 470.816 689.395 470.966L694.904 471.052H695.44H695.482C695.504 471.052 695.547 471.052 695.568 471.074C695.611 471.095 695.632 471.159 695.632 471.224V471.267V471.438V472.768V475.449V486.171V488.852C695.675 489.839 695.697 490.89 695.847 491.897C696.083 493.913 696.554 495.929 697.261 497.859C698.633 501.805 700.927 505.408 703.949 508.282C705.449 509.719 707.142 510.963 708.921 511.992L710.036 512.636C710.357 512.829 710.657 513.022 710.979 513.236C711.601 513.665 712.136 514.158 712.672 514.673C713.701 515.702 714.537 516.989 714.987 518.362C715.116 518.769 715.544 519.841 715.716 521.407C715.759 521.6 715.737 521.793 715.759 522.007V522.243C715.544 522.35 716.38 522.308 716.788 522.329H718.245C718.502 522.565 715.587 523.144 715.887 523.358C716.059 524.323 716.487 525.289 717.173 526.082C717.859 526.876 718.781 527.519 719.831 527.841C720.839 528.205 722.253 528.098 722.66 528.098C725.211 528.055 727.847 528.012 730.184 527.991H731.855H732.67C733.12 527.991 733.549 527.969 733.956 527.883C735.606 527.583 736.785 526.64 737.45 525.76C738.264 524.731 738.671 523.423 738.629 522.136C738.65 521.385 738.693 520.892 738.8 520.249C738.993 519.048 739.336 517.847 739.915 516.582C740.793 514.651 742.208 512.85 744.18 511.52C744.694 511.177 745.637 510.598 746.345 510.083C747.095 509.547 747.802 508.968 748.51 508.368C749.881 507.145 751.146 505.773 752.239 504.293C754.854 500.797 756.59 496.616 757.212 492.241C757.619 488.702 757.405 485.85 757.576 482.783C757.683 478.944 757.79 475.105 757.897 471.245C757.897 471.202 757.962 471.159 758.005 471.181H758.069L759.591 471.224L762.784 471.267H763.577H763.985L764.713 471.224C765.678 471.138 766.621 470.859 767.478 470.409C769.193 469.53 770.543 467.943 771.165 466.098C771.315 465.626 771.422 465.155 771.486 464.683C771.551 464.232 771.551 463.632 771.551 463.46V461.873V458.678V457.498C771.615 456.962 771.294 456.469 771.144 455.976C770.779 455.054 770.479 454.496 769.965 453.767C769.472 453.081 768.85 452.394 768.079 451.858C767.371 451.322 766.257 450.807 765.378 450.657C763.642 450.336 762.656 450.421 761.541 450.378H758.348H756.74H756.333H756.204H755.99C753.418 450.507 749.388 450.121 747.438 451.301C746.645 451.772 746.088 452.502 745.98 453.252C745.916 453.745 746.023 454.239 746.409 454.668L746.388 454.603Z" fill="#32E6E2"/>
<path d="M725.211 524.302C724.054 525.653 723.518 528.184 723.475 530.95C723.432 533.738 723.904 536.719 724.354 539.035C725.082 542.917 726.39 546.799 728.49 550.294C728.983 551.174 729.583 552.01 730.162 552.846C730.784 553.661 731.47 554.412 732.134 555.184C732.477 555.57 732.799 555.956 733.141 556.342L734.299 557.35C735.092 557.993 735.799 558.766 736.699 559.28C739.765 561.511 743.258 562.862 746.688 563.934C750.138 564.963 753.568 565.499 756.912 566.1C760.277 566.658 763.513 567.237 766.664 568.03C769.815 568.845 772.751 570.046 775.516 571.569C780.339 574.55 784.475 579.096 786.233 584.608C788.462 591.578 786.833 598.976 787.155 606.933C787.219 610.428 787.926 614.053 789.127 617.463L790.155 619.993C790.498 620.83 791.013 621.602 791.42 622.395C792.256 624.025 793.349 625.44 794.442 626.856C798.836 632.518 804.795 636.657 811.117 639.638C814.354 641.16 817.676 642.426 821.041 643.412C824.428 644.441 827.857 645.235 831.33 645.793C833.066 646.071 834.823 646.307 836.581 646.436C837.481 646.522 838.338 646.565 839.303 646.607C840.246 646.607 841.103 646.543 842.004 646.522C843.783 646.457 845.583 646.393 847.383 646.071L850.084 645.664C850.963 645.471 851.842 645.213 852.742 644.999C856.343 644.12 859.708 642.554 862.859 640.817C865.945 638.973 868.796 636.893 871.411 634.726C874.047 632.603 876.533 630.437 879.105 628.593C881.699 626.792 884.421 625.312 887.422 624.411C888.965 624.132 890.487 623.682 892.094 623.746C892.887 623.746 893.68 623.66 894.495 623.703C895.288 623.789 896.102 623.811 896.874 623.961C900.025 624.454 903.047 625.591 905.79 627.263C911.299 630.609 915.564 635.799 919.83 641.074C924.095 646.393 928.467 651.84 933.954 656.43C939.377 661.041 946.043 664.601 953.202 666.145C961.154 667.925 969.191 667.71 976.865 666.23C980.723 665.501 984.474 664.429 988.16 663.099C990.004 662.434 991.804 661.748 993.583 660.955C995.384 660.14 997.227 659.411 998.984 658.446C1011.54 652.183 1022.09 641.289 1027.21 628.765C1028.54 625.526 1028.52 622.61 1026.4 623.081C1025.41 623.296 1024.49 624.883 1023.7 625.955C1022.82 627.456 1021.83 628.936 1020.76 630.416C1019.99 631.488 1019.24 632.496 1018.49 633.526C1016.56 636.249 1014.4 638.801 1012.08 641.225C1005.61 648.087 997.784 653.556 988.996 657.18C979.651 661.212 969.513 663.121 959.718 661.77C954.852 661.062 950.158 659.668 945.893 657.309C941.606 655.036 937.77 651.926 934.233 648.409C930.675 644.913 927.417 640.967 924.009 637C920.58 633.054 917 628.979 912.521 625.548C908.127 622.052 902.554 619.5 896.745 618.792L894.581 618.578C893.852 618.578 893.123 618.578 892.394 618.578L890.208 618.621L888 618.964C885.043 619.35 882.235 620.465 879.62 621.709C874.304 624.368 870.103 628.014 865.881 631.059C861.68 634.19 857.393 636.785 852.678 638.479C851.499 638.823 850.298 639.187 849.12 639.552C847.898 639.831 846.633 639.981 845.433 640.174C844.726 640.367 842.711 640.431 840.032 640.667C837.502 640.817 833.944 640.517 830.429 640.002C826.871 639.466 823.249 638.587 820.163 637.579C818.619 637.064 817.183 636.549 815.983 635.992C814.74 635.499 813.732 634.962 812.939 634.555C809.231 632.539 806.081 630.437 802.651 627.328C800.165 624.883 797.657 622.245 796.007 618.878C793.885 614.868 792.834 610.407 792.492 605.753C792.041 600.22 792.599 594.43 791.634 588.254C790.97 583.514 789.019 578.667 786.083 574.786L784.54 572.77L782.761 570.968C781.625 569.703 780.21 568.738 778.86 567.708C777.488 566.722 775.966 565.907 774.466 565.113C772.923 564.449 771.401 563.698 769.815 563.226C763.513 561.06 757.169 560.331 751.403 558.937C748.552 558.186 745.766 557.414 743.344 556.128C742.058 555.592 741.008 554.734 739.85 554.047C739.314 553.64 738.843 553.168 738.328 552.739C737.814 552.31 737.3 551.881 736.871 551.345C735.006 549.394 733.442 547.099 732.327 544.59C731.77 543.325 731.255 542.059 730.869 540.708C730.655 540.043 730.505 539.357 730.334 538.692C730.291 538.521 730.248 538.349 730.205 538.178L730.162 538.006L730.098 537.727C729.176 534.339 729.369 528.656 728.426 525.868C727.997 524.731 727.354 523.895 726.626 523.702C726.154 523.573 725.64 523.745 725.168 524.302H725.211Z" fill="#32E6E2"/>
</svg>
