<svg width="142" height="121" viewBox="0 0 142 121" fill="none" xmlns="http://www.w3.org/2000/svg">
<path d="M7.392 100V28.48H54.528V38.56H18.72V59.104H52.608V69.184H18.72V89.92H54.528V100H7.392Z" fill="white"/>
<path d="M99.8003 101.152C94.6163 101.152 89.7843 100.224 85.3043 98.368C80.8883 96.512 76.9843 93.92 73.5923 90.592C70.2643 87.264 67.6403 83.36 65.7203 78.88C63.8643 74.4 62.9363 69.504 62.9363 64.192C62.9363 58.88 63.8643 53.984 65.7203 49.504C67.6403 44.96 70.2643 41.056 73.5923 37.792C76.9203 34.464 80.8243 31.904 85.3043 30.112C89.7843 28.256 94.6163 27.328 99.8003 27.328C105.048 27.328 109.88 28.256 114.296 30.112C118.776 31.904 122.68 34.464 126.008 37.792C129.4 41.12 132.024 45.024 133.88 49.504C135.736 53.984 136.664 58.88 136.664 64.192C136.664 69.504 135.704 74.4 133.784 78.88C131.928 83.36 129.336 87.264 126.008 90.592C122.68 93.92 118.776 96.512 114.296 98.368C109.816 100.224 104.984 101.152 99.8003 101.152ZM99.8003 90.784C103.512 90.784 106.904 90.112 109.976 88.768C113.112 87.424 115.832 85.568 118.136 83.2C120.44 80.768 122.232 77.952 123.512 74.752C124.792 71.488 125.432 67.968 125.432 64.192C125.432 60.416 124.792 56.928 123.512 53.728C122.232 50.528 120.44 47.712 118.136 45.28C115.832 42.848 113.112 40.96 109.976 39.616C106.904 38.272 103.512 37.6 99.8003 37.6C96.0883 37.6 92.6643 38.272 89.5283 39.616C86.4563 40.96 83.7683 42.848 81.4643 45.28C79.1603 47.712 77.3683 50.528 76.0883 53.728C74.8723 56.928 74.2643 60.416 74.2643 64.192C74.2643 67.968 74.8723 71.488 76.0883 74.752C77.3683 77.952 79.1603 80.768 81.4643 83.2C83.7683 85.568 86.4883 87.424 89.6243 88.768C92.7603 90.112 96.1523 90.784 99.8003 90.784Z" fill="#23B7B7"/>
</svg>
